<svg xmlns="http://www.w3.org/2000/svg" viewBox="0 0 1701.88 1701.88"><defs><style>.cls-1,.cls-2,.cls-3,.cls-4,.cls-5,.cls-6,.cls-7{fill:none;stroke:#000;}.cls-1,.cls-2,.cls-4,.cls-5,.cls-6{stroke-miterlimit:10;}.cls-1,.cls-3{stroke-width:12px;}.cls-2,.cls-7{stroke-width:8px;}.cls-3,.cls-7{stroke-linejoin:round;}.cls-4{stroke-width:4px;}.cls-5{stroke-width:15px;}.cls-6{stroke-width:2px;}</style></defs><g id="圖層_2" data-name="圖層 2"><polyline class="cls-1" points="874.45 722.42 825.34 722.42 1000.75 722.42"/><polyline class="cls-1" points="913.85 777.88 913.85 674.77 913.85 619.88"/><line class="cls-1" x1="812.16" y1="778.02" x2="1023.6" y2="778.02"/><line class="cls-1" x1="813.99" y1="841.07" x2="1025.43" y2="841.07"/><line class="cls-2" x1="1142.75" y1="744.57" x2="1060.75" y2="744.57"/><line class="cls-2" x1="1309.12" y1="745" x2="1246.12" y2="745"/><path d="M1064.59,801.88l78.15-.12-6,6V680.88l6,6H1064.6l6-6v460.4h-12V680.88a6,6,0,0,1,6-6h78.15a6,6,0,0,1,6,6V807.76a6,6,0,0,1-6,6l-78.15.12,0-12Z"/><line class="cls-2" x1="459.54" y1="778.11" x2="670.02" y2="527.88"/><polyline class="cls-3" points="497.06 733.5 651.56 733.5 588.99 796.07"/><line class="cls-1" x1="867.85" y1="909.89" x2="899.46" y2="948.9"/><line class="cls-4" x1="911.01" y1="940.9" x2="878.9" y2="901.28"/><polyline class="cls-5" points="1254.06 664 1323.58 664 1323.58 807.88"/><polyline class="cls-5" points="447.58 664 378.06 664 378.06 806.88"/><polyline class="cls-5" points="447.58 1020.88 378.06 1020.88 378.06 878"/><polyline class="cls-5" points="1254.06 1020.88 1323.58 1020.88 1323.58 878"/><line class="cls-2" x1="422.86" y1="842" x2="369.42" y2="842"/><polygon points="599.1 931.25 655.96 988.12 647.48 996.6 590.61 939.74 599.1 931.25 599.1 931.25"/><path d="M322.33,1171.09c43.14-43.2,111.94-111.89,154.38-154.38l10-10.5L647.57,837.74l4.34,10.14H504.2l4.34-10.15,59.31,62-8.67,8.3-59.31-62a6,6,0,0,1,4.33-10.15H651.91A6,6,0,0,1,656.25,846L495.37,1014.55l-10.08,10.55c-18.69,18.78-53.1,53-72.08,72.09l-82.39,82.39-8.49-8.49Z"/><line class="cls-6" x1="841.88" y1="1069.94" x2="841.88" y2="1233.94"/><line class="cls-6" x1="841.88" y1="467.94" x2="841.88" y2="631.94"/><line class="cls-6" x1="334.94" y1="841.88" x2="170.94" y2="841.88"/><line class="cls-6" x1="1530.94" y1="841.88" x2="1366.94" y2="841.88"/><line class="cls-4" x1="983.47" y1="780.88" x2="983.47" y2="1116.88"/><line class="cls-4" x1="513.11" y1="736.41" x2="476.15" y2="780.62"/><rect class="cls-3" x="706.25" y="757.33" width="69.49" height="166.61"/><line class="cls-7" x1="706.25" y1="840.88" x2="775.73" y2="840.88"/><polyline class="cls-3" points="1246.15 680.88 1246.15 807.88 1309.41 807.88"/><rect class="cls-3" x="1155.12" y="853.88" width="78" height="127"/><line class="cls-2" x1="1233.12" y1="916.88" x2="1155.12" y2="916.88"/><polyline class="cls-2" points="970.44 778.02 970.44 1069.88 970.44 1116.66 948.44 1116.66"/><line class="cls-4" x1="1171.12" y1="980.88" x2="1171.12" y2="853.88"/><line class="cls-4" x1="1153.12" y1="964.88" x2="1233.12" y2="964.88"/></g></svg>