<svg id="圖層_1" data-name="圖層 1" xmlns="http://www.w3.org/2000/svg" viewBox="0 0 1080 1080"><defs><style>.cls-1{isolation:isolate;}</style></defs><path d="M911.37,615.39c-1.24,0-2.45,0-3.47-.09h0a1.33,1.33,0,0,1-1.3-1.34,1.36,1.36,0,0,1,1.31-1.35c1,0,2,.06,2.94.06a22.2,22.2,0,0,0,9.76-1.77,43.55,43.55,0,0,0,10.76-7.27,19.9,19.9,0,0,0,6.13-10.77c.62-2.53.54-6.14.48-9.31,0-1.38-.05-2.68,0-3.84-.11-20.34-.92-161.33-.92-161.33a2.3,2.3,0,0,1,.56-1.66,2.4,2.4,0,0,1,1.63-.85h.2a2.41,2.41,0,0,1,2.38,2.18v.07a.75.75,0,0,1,0,.26l-.23,59.44c-.16,39.62-.34,84.25-.44,108.65a24.22,24.22,0,0,1-7.8,19.36,46,46,0,0,1-11.59,7.63A23.89,23.89,0,0,1,911.37,615.39Z"/><path d="M940.84,418.37c-.16,39.77-.51,129.38-.67,168.09.32,6.84-2.17,14-7.46,18.61a44.67,44.67,0,0,1-11.35,7.48c-4.16,2-9,1.94-13.42,1.75a.34.34,0,0,1-.34-.34h0a.35.35,0,0,1,.34-.35c4.46.14,9,.16,13.1-1.81a44.13,44.13,0,0,0,11-7.44,20.92,20.92,0,0,0,6.44-11.3c.9-3.72.38-9.46.47-13.33-.19-34.26-.72-126-.92-161.36a1.4,1.4,0,0,1,1.27-1.5,1.38,1.38,0,0,1,1.5,1.27.88.88,0,0,1,0,.23Z"/><path d="M772.91,482.9a1,1,0,0,1-1-1v-1a1,1,0,0,1,1-1H834.4a1.5,1.5,0,0,0,1.5-1.5l.44-50.94a1.5,1.5,0,0,0-1.5-1.49h-63a1,1,0,0,1-1-1v-1a1,1,0,0,1,1-1h63a4.51,4.51,0,0,1,4.5,4.5l-.44,50.95a4.5,4.5,0,0,1-4.5,4.48Z"/><path d="M834.4,481.9H772.91v-1H834.4a2.5,2.5,0,0,0,2.5-2.5l.44-50.93a2.51,2.51,0,0,0-2.5-2.5h-63v-1h63a3.5,3.5,0,0,1,3.5,3.5l-.44,50.94A3.5,3.5,0,0,1,834.4,481.9Z"/><path d="M877.64,481.37a4.5,4.5,0,0,1-4.5-4.5L872.7,426a4.51,4.51,0,0,1,4.5-4.52h63a1,1,0,0,1,1,1v1a1,1,0,0,1-1,1h-63a1.51,1.51,0,0,0-1.5,1.5l.44,50.92a1.51,1.51,0,0,0,1.5,1.51h61.44a1,1,0,0,1,1,1v1a1,1,0,0,1-1,1Z"/><path d="M939.08,480.37H877.64a3.5,3.5,0,0,1-3.5-3.5L873.7,426a3.51,3.51,0,0,1,3.5-3.51h63v1h-63a2.51,2.51,0,0,0-2.5,2.5l.44,50.93a2.5,2.5,0,0,0,2.5,2.5h61.44Z"/><path d="M774.31,454.44a1.5,1.5,0,0,1,0-3h63a1.5,1.5,0,0,1,0,3Z"/><path d="M837.34,453.44h-63a.5.5,0,0,1-.5-.5.51.51,0,0,1,.5-.5h63a.5.5,0,0,1,.5.5A.5.5,0,0,1,837.34,453.44Z"/><path d="M875.16,453.07a1.5,1.5,0,0,1,0-3h63a1.5,1.5,0,0,1,0,3Z"/><path d="M938.19,452.07h-63a.5.5,0,0,1-.5-.5.51.51,0,0,1,.5-.5h63a.5.5,0,0,1,.5.5A.5.5,0,0,1,938.19,452.07Z"/><path d="M897.54,581.41a1.5,1.5,0,0,1-1.5-1.5V502a1.5,1.5,0,0,1,3,0v78A1.5,1.5,0,0,1,897.54,581.41Z"/><path d="M897.54,580.41a.5.5,0,0,1-.5-.5V502a.51.51,0,0,1,.5-.5.5.5,0,0,1,.5.5v78A.5.5,0,0,1,897.54,580.41Z"/><path d="M810.88,585.69a1.5,1.5,0,0,1-1.5-1.5v-78a1.5,1.5,0,0,1,3,0v78A1.5,1.5,0,0,1,810.88,585.69Z"/><path d="M810.88,584.69a.5.5,0,0,1-.5-.5v-78a.51.51,0,0,1,.5-.5.5.5,0,0,1,.5.5v78A.5.5,0,0,1,810.88,584.69Z"/><path d="M819.73,509.42h-.09a1.33,1.33,0,0,1-.24-2.64l.24,0h.11l78.1-.43a1.75,1.75,0,0,1,0,3.5Z"/><path d="M819.7,507.77l78.15-.43a.75.75,0,0,1,0,1.5l-78.16-.42a.32.32,0,0,1-.38-.26.34.34,0,0,1,.27-.39h.12Z"/><path d="M811.26,577a1.75,1.75,0,0,1,0-3.5l78,.43a1.32,1.32,0,0,1,1.32,1.28,1.33,1.33,0,0,1-1.33,1.37Z"/><path d="M811.26,574.54l78,.43a.32.32,0,0,1,.33.31h0a.32.32,0,0,1-.33.33h0l-78,.42a.75.75,0,0,1,0-1.5Z"/><path d="M765.94,608.77a2.13,2.13,0,0,1-1.47-3.67c5.36-4.58,7.49-10.81,7-20.22l-.13-23.64L771,512.15c-.17-33.81-.38-73-.49-92.5a2.5,2.5,0,0,1,5,0l.23,169.62a24.77,24.77,0,0,1-8.5,19.06A2.19,2.19,0,0,1,765.94,608.77Z"/><path d="M774.55,419.63c.06,45.85.17,124.52.23,169.61a23.81,23.81,0,0,1-8.16,18.3,1.12,1.12,0,0,1-1.58-.22,1.14,1.14,0,0,1,.12-1.5c6.42-5.49,7.72-13,7.27-21l-.13-23.59c-.16-30-.58-110.56-.75-141.59a1.5,1.5,0,0,1,3,0Z"/><path d="M191.92,453.15a3,3,0,0,1-2.91-2.26c0-.08,0-.16,0-.23-3.87-21-21.45-38.09-42.75-41.47a1.5,1.5,0,0,1,.23-3l.22,0,.1,0c23.07,2.66,42.82,20.4,48.07,43.2a3,3,0,0,1-2.18,3.62A3.06,3.06,0,0,1,191.92,453.15Z"/><path d="M146.52,407.21c22.64,2.55,42.21,20.15,47.34,42.45a2,2,0,0,1-3.88,1l0-.15c-3.94-21.43-22-38.87-43.58-42.29a.5.5,0,0,1-.42-.57.51.51,0,0,1,.57-.43h0Z"/><path d="M141.66,610.37a3.5,3.5,0,0,1-2.11-6.3l.24-.16c24.25-16,48.69-45.38,44.54-80a62,62,0,0,0-8.63-25.08c-.72-1.21-2.15-3.52-2.88-4.6-7-10.52-14.18-18.19-22.07-23.46a29.78,29.78,0,0,0-9.58-4.31,1.62,1.62,0,0,1-1-.8,1.58,1.58,0,0,1-.12-1.24,1.62,1.62,0,0,1,1.56-1.16h.14l.16,0c11.47,2.7,22.72,12.05,34.41,28.59.82,1.19,2.37,3.53,3.05,4.74a66.41,66.41,0,0,1,9.79,26.67c5.34,37-20,68.91-45.42,86.44A3.49,3.49,0,0,1,141.66,610.37Z"/><path d="M141.67,464.22c14.08,3.31,25.78,16.81,33.82,28.19.79,1.15,2.33,3.47,3,4.66a66,66,0,0,1,9.67,26.31c5,34.68-17.63,66.63-45,85.48a2.5,2.5,0,0,1-3-4l.17-.12c26.72-17.59,49-47.62,45-81a63.31,63.31,0,0,0-8.77-25.48c-.69-1.17-2.14-3.51-2.9-4.64-6-9.07-13.23-17.65-22.35-23.74a30.86,30.86,0,0,0-9.89-4.44.63.63,0,0,1-.42-.78.65.65,0,0,1,.66-.45Z"/><path d="M202.17,496.5a1.55,1.55,0,0,1-1-.33l-.09-.08a1.56,1.56,0,0,1-.19-2.16c10.1-12.71,20.59-26.4,28.14-41.75,6.39-13.54,10.45-29.32,12.38-48.22a2.5,2.5,0,0,1,2.49-2.24,1.37,1.37,0,0,1,.28,0,2.51,2.51,0,0,1,2.22,2.76,1.6,1.6,0,0,1-.05.21c-2.29,19.24-6.76,35.36-13.67,49.3-8,15.56-18.89,29.24-29.34,41.91A1.51,1.51,0,0,1,202.17,496.5Z"/><path d="M245.42,404.39c-2,16.91-6,33.84-13.6,49.17-7.82,15.18-18.42,28.63-29.21,41.72a.55.55,0,0,1-.78.1l0,0a.59.59,0,0,1-.09-.81c10.48-13.19,20.8-26.78,28.25-41.93,7.17-15.18,10.78-31.93,12.48-48.56a1.51,1.51,0,0,1,3,.33Z"/><path d="M257.46,436.26a1.5,1.5,0,0,1-1.5-1.48,1.53,1.53,0,0,1,.43-1.07,1.55,1.55,0,0,1,1.06-.45l50.42-.5a1.51,1.51,0,0,1,1.51,1.49,1.5,1.5,0,0,1-1.48,1.51Z"/><path d="M257.46,435.26a.5.5,0,1,1,0-1l50.42-.5h0a.5.5,0,0,1,.5.5.49.49,0,0,1-.49.5l-50.42.5Z"/><path d="M279.56,497a48,48,0,0,1-8.05-.67,1.46,1.46,0,0,1-.95-.58,1.48,1.48,0,0,1-.28-1.11,1.5,1.5,0,0,1,1.49-1.28l.23,0a44,44,0,0,0,6.41.46c11,0,23.94-3.75,27.49-14.25a1,1,0,0,1,.19-.34c1-2.48,1.07-26.45,1.14-39.39,0-7.88.06-12,.17-12.91a2.46,2.46,0,0,1,2.49-2.34,2.49,2.49,0,0,1,2.5,2.57l-1.62,47.27a20.43,20.43,0,0,1-1.23,6.46C305.22,492.77,291.23,497,279.56,497Z"/><path d="M311.39,427.15l-1.62,47.26a19.27,19.27,0,0,1-1.17,6.15c-5.06,13.9-24,17-36.92,14.78a.49.49,0,0,1-.41-.55v0a.5.5,0,0,1,.57-.41c12.12,1.82,30.57-1.34,35-14.45,1.7-1,1.21-50,1.55-52.85a1.51,1.51,0,0,1,1.55-1.45,1.49,1.49,0,0,1,1.45,1.54Z"/><path d="M258,513.54a1.5,1.5,0,0,1,0-3h50.28a1.5,1.5,0,1,1,0,3Z"/><path d="M308.26,512.54H258a.5.5,0,0,1-.5-.5.51.51,0,0,1,.5-.5h50.28a.5.5,0,0,1,.5.5A.5.5,0,0,1,308.26,512.54Z"/><path d="M185.79,612.6a1.86,1.86,0,0,1-.37-3.69l1.84-.37c6.47-1.33,13.15-2.7,19.61-4.48,36.54-9.59,64.36-30.45,85-63.77a161,161,0,0,0,17.64-39.6,2.78,2.78,0,0,1,2.64-2,2.66,2.66,0,0,1,.79.12,2.75,2.75,0,0,1,1.85,3.42.74.74,0,0,1-.11.24c-11.48,37.18-35.35,69.28-65.51,88.12-11.8,7.35-25.71,13.15-41.35,17.25-6.71,1.79-13.6,3.12-20.26,4.41l-1.48.29Z"/><path d="M313.84,502C303,537.35,280.31,570,248.68,589.77,236,597.65,222,603.13,207.6,606.9c-7.17,1.91-14.5,3.29-21.67,4.68a.86.86,0,0,1-.32-1.69c7.21-1.48,14.43-2.91,21.52-4.87,37.4-9.82,65.32-31.5,85.63-64.21A161.7,161.7,0,0,0,310.51,501a1.75,1.75,0,0,1,3.36,1Z"/><path d="M338.27,615.29H338a2.7,2.7,0,0,1-.39-.08,159.21,159.21,0,0,1-112.41-84.88,1.65,1.65,0,0,1,1.47-2.39,1.62,1.62,0,0,1,1.47.9l.06.12C249.69,571,292,602,338.63,609.8a2.69,2.69,0,0,1,1.79,1,2.75,2.75,0,0,1-2.15,4.48Z"/><path d="M227.2,529.3c21.77,42.57,64.12,73.57,111.26,81.48a1.76,1.76,0,0,1-.4,3.5,1.23,1.23,0,0,1-.25,0A157.39,157.39,0,0,1,226,529.87a.65.65,0,0,1,1.16-.59Z"/><path d="M881.47,551.5a1.1,1.1,0,0,1-.26,0h0a.93.93,0,0,1-.5-.14,77.94,77.94,0,0,0-51.83-11.21l-.37,0a2.72,2.72,0,0,1-2.69-2.34,2.72,2.72,0,0,1,2.32-3.06c2.69-.26,5.38-.39,8-.39a82,82,0,0,1,46.32,14.27.93.93,0,0,1,.15.13,1.65,1.65,0,0,1,.46,1.16,1.62,1.62,0,0,1-1.62,1.58Z"/><path d="M881.22,550.49a79,79,0,0,0-52.5-11.36,1.71,1.71,0,1,1-.47-3.39,81.36,81.36,0,0,1,53.66,13.71.62.62,0,0,1-.69,1Z"/><path d="M579.35,619a28.88,28.88,0,0,1-7.85-1.09,1.52,1.52,0,0,1,.41-3,1.31,1.31,0,0,1,.39,0,25.76,25.76,0,0,0,6.6.86c.69,0,1.38,0,2.06-.08a27.41,27.41,0,0,0,15.58-7c9.41-8.14,11.13-22,10.92-32.19,0-3.92-.9-76-1-81.7a2.5,2.5,0,0,1,5-.29,1,1,0,0,1,0,.3c0,6.1-.16,78.65-.17,81.73.08,10.92-2.05,25.83-12.58,34.76a30.72,30.72,0,0,1-17.56,7.6C580.56,619,580,619,579.35,619Z"/><path d="M610.5,494.87c0,6-.16,77.63-.17,81.72.08,12.11-2.52,25.77-12.23,34a29.45,29.45,0,0,1-17,7.37,27.49,27.49,0,0,1-9.33-1,.51.51,0,0,1-.36-.63A.52.52,0,0,1,572,616a26.54,26.54,0,0,0,9,.81,28.09,28.09,0,0,0,16.17-7.29c9.25-8,11.49-21.24,11.25-32.94,0-3.83-.9-76-1-81.7a1.5,1.5,0,1,1,3,0Z"/><path d="M515.63,478.8a1.5,1.5,0,0,1,0-3h116.8a1.5,1.5,0,0,1,0,3Z"/><path d="M632.43,477.8H515.63a.5.5,0,0,1-.5-.5.51.51,0,0,1,.5-.5h116.8a.5.5,0,0,1,.5.5A.5.5,0,0,1,632.43,477.8Z"/><path d="M515.63,436a1.5,1.5,0,0,1,0-3h116.8a1.5,1.5,0,1,1,0,3Z"/><path d="M632.43,435H515.63a.5.5,0,0,1-.5-.5.51.51,0,0,1,.5-.5h116.8a.5.5,0,0,1,.5.5A.5.5,0,0,1,632.43,435Z"/><path d="M572.18,478.8a1.5,1.5,0,0,1-1.5-1.5v-79a1.5,1.5,0,0,1,3,0v79A1.5,1.5,0,0,1,572.18,478.8Z"/><path d="M572.18,477.8a.5.5,0,0,1-.5-.5v-79a.51.51,0,0,1,.5-.5.5.5,0,0,1,.5.5v79A.5.5,0,0,1,572.18,477.8Z"/><path d="M515.38,517a1.5,1.5,0,1,1,0-3H632a1.5,1.5,0,0,1,0,3Z"/><path d="M632,516H515.38a.5.5,0,0,1-.5-.5.51.51,0,0,1,.5-.5H632a.5.5,0,0,1,.5.5A.5.5,0,0,1,632,516Z"/><path d="M572,579.16a3,3,0,0,1-2.89-2.22,2.49,2.49,0,0,1-.08-.35c-3.79-21-21.32-38.14-42.62-41.58a1.52,1.52,0,0,1-1-.6,1.51,1.51,0,0,1,1.22-2.39l.24,0,.1,0c23.06,2.73,42.76,20.54,47.92,43.35a3,3,0,0,1-2.91,3.75Z"/><path d="M526.74,533c22.63,2.62,42.15,20.28,47.2,42.6a2,2,0,1,1-3.86,1,2,2,0,0,1-.05-.24C566.16,555,548.12,537.5,526.58,534a.51.51,0,0,1-.42-.58.52.52,0,0,1,.58-.42Z"/><path d="M489.82,501.06a1.39,1.39,0,0,1-1.07-.52,1.1,1.1,0,0,1-.17-.25c-5.22-11.45-17-19.15-29.2-19.15-.84,0-1.69,0-2.52.11h-.16a2,2,0,0,1-.15-4c.65,0,1.29-.06,1.93-.06,13.78,0,27.2,9,32.63,22a1.41,1.41,0,0,1-.84,1.81A1.42,1.42,0,0,1,489.82,501.06Z"/><path d="M489.49,499.87c-5.68-12.45-19-20.81-32.72-19.62a1,1,0,0,1-1.07-.92,1,1,0,0,1,.92-1.08c14.27-.85,28.08,8.23,33.56,21.3a.38.38,0,0,1-.69.31Z"/><path d="M449.25,577.13a1.5,1.5,0,0,1-1.5-1.5V419.42a1.5,1.5,0,0,1,3,0V575.63A1.5,1.5,0,0,1,449.25,577.13Z"/><path d="M449.25,576.13a.5.5,0,0,1-.5-.5V419.42a.51.51,0,0,1,.5-.5.5.5,0,0,1,.5.5V575.63A.5.5,0,0,1,449.25,576.13Z"/><path d="M495.74,567.5a1.5,1.5,0,0,1-1.5-1.5V410.86a1.5,1.5,0,0,1,3,0V566A1.5,1.5,0,0,1,495.74,567.5Z"/><path d="M495.74,566.5a.5.5,0,0,1-.5-.5V410.86a.51.51,0,0,1,.5-.5.5.5,0,0,1,.5.5V566A.5.5,0,0,1,495.74,566.5Z"/><path d="M457.59,422h-.16a1.32,1.32,0,0,1-.86-.55,1.33,1.33,0,0,1,.86-2.07l.16,0,38.14-.42a1.75,1.75,0,0,1,0,3.5h0Z"/><path d="M457.6,420.36l38.14-.42a.75.75,0,0,1,.76.74h0a.75.75,0,0,1-.75.76L457.6,421a.32.32,0,0,1-.26-.38.34.34,0,0,1,.26-.27Z"/><path d="M449.42,566.06a1.75,1.75,0,0,1,0-3.5l39.22.43.16,0a1.33,1.33,0,0,1,1.09,1.54,1.34,1.34,0,0,1-1.08,1.08h-.17Z"/><path d="M449.42,563.56l39.21.43a.34.34,0,0,1,.27.39.32.32,0,0,1-.27.26l-39.21.42a.75.75,0,0,1,0-1.5Z"/><g class="cls-1"><g class="cls-1"><path d="M154.54,682.79a1,1,0,0,1-.83-.44L143.47,667v14.76a1,1,0,0,1-1,1h-2.91a1,1,0,0,1-1-1v-23a1,1,0,0,1,1-1h3.12a1,1,0,0,1,.83.44l10.24,15.3V658.82a1,1,0,0,1,1-1h2.91a1,1,0,0,1,1,1v23a1,1,0,0,1-1,1Z"/><path d="M139.56,681.79v-23h3.12l12.07,18v-18h2.91v23h-3.12l-12.07-18v18Z"/><path d="M188.89,683.19a11.9,11.9,0,0,1-6.33-1.72,11.14,11.14,0,0,1-4.25-4.69,14.05,14.05,0,0,1-1.41-6.18c0-4.06,1.12-7.3,3.34-9.64a11.45,11.45,0,0,1,8.66-3.55,12.1,12.1,0,0,1,6.25,1.66,11,11,0,0,1,4.28,4.66,14.76,14.76,0,0,1,1.44,6.61,14.6,14.6,0,0,1-1.52,6.71,10.67,10.67,0,0,1-4.4,4.59A12.42,12.42,0,0,1,188.89,683.19Zm0-21.16a6.73,6.73,0,0,0-4.87,1.94c-1.34,1.27-2,3.52-2,6.68a8.26,8.26,0,0,0,2,5.86,6.79,6.79,0,0,0,9.78,0,8.82,8.82,0,0,0,2-6.17,10.78,10.78,0,0,0-.86-4.48,6.28,6.28,0,0,0-2.4-2.82A6.47,6.47,0,0,0,188.92,662Z"/><path d="M177.9,670.6q0-5.72,3.07-9a10.44,10.44,0,0,1,7.93-3.24,11.07,11.07,0,0,1,5.74,1.52,9.91,9.91,0,0,1,3.89,4.24,13.68,13.68,0,0,1,1.34,6.17,13.53,13.53,0,0,1-1.41,6.25,9.66,9.66,0,0,1-4,4.18,11.52,11.52,0,0,1-5.58,1.42,10.89,10.89,0,0,1-5.8-1.57,10.1,10.1,0,0,1-3.88-4.28A13.08,13.08,0,0,1,177.9,670.6Zm3.13,0a9.19,9.19,0,0,0,2.24,6.54,7.79,7.79,0,0,0,11.25,0q2.22-2.42,2.22-6.85a11.83,11.83,0,0,0-1-4.9,7.29,7.29,0,0,0-2.78-3.24,7.47,7.47,0,0,0-4.09-1.15,7.8,7.8,0,0,0-5.56,2.21Q181,665.46,181,670.65Z"/><path d="M250.08,682.79a1,1,0,0,1-1-1V662.53h-6.57a1,1,0,0,1-1-1v-2.71a1,1,0,0,1,1-1h18.21a1,1,0,0,1,1,1v2.71a1,1,0,0,1-1,1h-6.6v19.26a1,1,0,0,1-1,1Z"/><path d="M250.08,681.79V661.53h-7.57v-2.71h18.21v2.71h-7.6v20.26Z"/><rect x="279.4" y="657.82" width="5.04" height="24.98" rx="1"/><path d="M280.4,681.79v-23h3.05v23Z"/><path d="M323.76,682.79a1,1,0,0,1-1-1v-13.3L318,682.12a1,1,0,0,1-.95.67h-2.74a1,1,0,0,1-.95-.67l-4.7-13.83v13.5a1,1,0,0,1-1,1h-2.93a1,1,0,0,1-1-1v-23a1,1,0,0,1,1-1h4.58a1,1,0,0,1,1,.68s5.54,16.6,5.6,16.76c.08-.25,5.76-16.77,5.76-16.77a1,1,0,0,1,1-.67h4.09a1,1,0,0,1,1,1v23a1,1,0,0,1-1,1Z"/><path d="M304.76,681.79v-23h4.58l5.44,16.27c.5,1.51.86,2.64,1.09,3.4.27-.84.67-2.07,1.23-3.69l5.5-16h4.09v23h-2.93V662.56l-6.68,19.23h-2.74l-6.65-19.56v19.56Z"/><path d="M347.71,682.79a1,1,0,0,1-1-1v-23a1,1,0,0,1,1-1h16.61a1,1,0,0,1,1,1v2.71a1,1,0,0,1-1,1H351.75v5h11.71a1,1,0,0,1,1,1v2.69a1,1,0,0,1-1,1H351.75v5.82h13.11a1,1,0,0,1,1,1v2.71a1,1,0,0,1-1,1Z"/><path d="M347.71,681.79v-23h16.61v2.71H350.75v7h12.71v2.69H350.75v7.82h14.11v2.71Z"/></g><g class="cls-1"><path d="M422.16,682.79a1,1,0,0,1-1-1v-23a1,1,0,0,1,1-1h3a1,1,0,0,1,1,1v19.26h10.31a1,1,0,0,1,1,1v2.71a1,1,0,0,1-1,1Z"/><path d="M422.16,681.79v-23h3v20.26h11.31v2.71Z"/></g><g class="cls-1"><path d="M466.62,683.19a11.89,11.89,0,0,1-6.32-1.72,11.14,11.14,0,0,1-4.25-4.69,14.05,14.05,0,0,1-1.41-6.18c0-4.06,1.12-7.3,3.34-9.64a11.45,11.45,0,0,1,8.66-3.55,12.1,12.1,0,0,1,6.25,1.66,11,11,0,0,1,4.28,4.66,14.76,14.76,0,0,1,1.44,6.61,14.6,14.6,0,0,1-1.52,6.71,10.64,10.64,0,0,1-4.41,4.59A12.36,12.36,0,0,1,466.62,683.19Zm0-21.16a6.72,6.72,0,0,0-4.86,1.94c-1.34,1.27-2,3.52-2,6.68a8.3,8.3,0,0,0,2,5.86,6.8,6.8,0,0,0,9.79,0,8.82,8.82,0,0,0,2-6.17,10.78,10.78,0,0,0-.86-4.48,6.28,6.28,0,0,0-2.4-2.82A6.48,6.48,0,0,0,466.65,662Z"/><path d="M455.64,670.6q0-5.72,3.07-9a10.44,10.44,0,0,1,7.93-3.24,11.07,11.07,0,0,1,5.74,1.52,9.91,9.91,0,0,1,3.89,4.24,13.81,13.81,0,0,1,1.34,6.17,13.53,13.53,0,0,1-1.41,6.25,9.63,9.63,0,0,1-4,4.18,11.46,11.46,0,0,1-5.58,1.42,10.94,10.94,0,0,1-5.8-1.57,10.14,10.14,0,0,1-3.87-4.28A12.94,12.94,0,0,1,455.64,670.6Zm3.13,0a9.23,9.23,0,0,0,2.23,6.54,7.8,7.8,0,0,0,11.26,0q2.22-2.42,2.22-6.85a11.83,11.83,0,0,0-1-4.9,7.29,7.29,0,0,0-2.78-3.24,7.48,7.48,0,0,0-4.1-1.15,7.79,7.79,0,0,0-5.55,2.21Q458.78,665.46,458.77,670.65Z"/><path d="M512.53,682.79a1,1,0,0,1-.83-.44L501.46,667v14.76a1,1,0,0,1-1,1h-2.91a1,1,0,0,1-1-1v-23a1,1,0,0,1,1-1h3.12a1,1,0,0,1,.83.44l10.24,15.3V658.82a1,1,0,0,1,1-1h2.91a1,1,0,0,1,1,1v23a1,1,0,0,1-1,1Z"/><path d="M497.55,681.79v-23h3.12l12.07,18v-18h2.91v23h-3.12l-12.07-18v18Z"/><path d="M547.78,683.19a14,14,0,0,1-6.61-1.57,10.61,10.61,0,0,1-4.61-4.62,14.23,14.23,0,0,1-1.52-6.58,15.23,15.23,0,0,1,1.51-6.7A10.3,10.3,0,0,1,541,659a13.73,13.73,0,0,1,6.54-1.53,13.16,13.16,0,0,1,4.88.88,8.36,8.36,0,0,1,3.56,2.56,11,11,0,0,1,1.93,4.13,1,1,0,0,1-.7,1.22l-2.75.75a1.09,1.09,0,0,1-.26,0,1,1,0,0,1-1-.72,7.74,7.74,0,0,0-1.12-2.44,4.36,4.36,0,0,0-1.79-1.29,7.06,7.06,0,0,0-2.78-.52,8.41,8.41,0,0,0-3.22.55,5.8,5.8,0,0,0-2.09,1.42,7,7,0,0,0-1.27,2,11.11,11.11,0,0,0-.8,4.24,10.26,10.26,0,0,0,1,4.68,5.68,5.68,0,0,0,2.63,2.63,8.54,8.54,0,0,0,3.85.9,9.37,9.37,0,0,0,3.48-.68,10.33,10.33,0,0,0,2.23-1.18v-2.8h-5.76a1,1,0,0,1-1-1v-2.69a1,1,0,0,1,1-1l9.74,0a1,1,0,0,1,1,1v8.53a1,1,0,0,1-.38.78,18.12,18.12,0,0,1-4.89,2.84A14.84,14.84,0,0,1,547.78,683.19Z"/><path d="M547.56,672.78v-2.69l9.74,0v8.53a17.26,17.26,0,0,1-4.63,2.68,13.54,13.54,0,0,1-4.89.91,13.13,13.13,0,0,1-6.15-1.45,9.64,9.64,0,0,1-4.18-4.2,13.17,13.17,0,0,1-1.41-6.12,14.19,14.19,0,0,1,1.41-6.27,9.34,9.34,0,0,1,4-4.31,12.57,12.57,0,0,1,6.07-1.42,11.94,11.94,0,0,1,4.5.81,7.44,7.44,0,0,1,3.16,2.25,10.09,10.09,0,0,1,1.74,3.76l-2.74.76a8.36,8.36,0,0,0-1.29-2.76,5.23,5.23,0,0,0-2.19-1.61,8.1,8.1,0,0,0-3.17-.6,9.35,9.35,0,0,0-3.6.63,6.61,6.61,0,0,0-2.45,1.67,8,8,0,0,0-1.46,2.27,12.15,12.15,0,0,0-.87,4.63,11.18,11.18,0,0,0,1.06,5.14,6.73,6.73,0,0,0,3.08,3.07,9.46,9.46,0,0,0,4.29,1,10.17,10.17,0,0,0,3.86-.76,9.74,9.74,0,0,0,2.85-1.62v-4.28Z"/><path d="M611.56,683.19a14.16,14.16,0,0,1-5.62-1,8.29,8.29,0,0,1-3.75-3.1,8.79,8.79,0,0,1-1.43-4.65,1,1,0,0,1,.92-1l2.86-.25h.09a1,1,0,0,1,1,.88,5.35,5.35,0,0,0,.79,2.39,4.32,4.32,0,0,0,1.88,1.43,7.77,7.77,0,0,0,3.13.6,7.47,7.47,0,0,0,2.71-.45,3.25,3.25,0,0,0,1.53-1.07,2.29,2.29,0,0,0,.46-1.38,2,2,0,0,0-.41-1.28,3.73,3.73,0,0,0-1.64-1,37,37,0,0,0-4-1.09,21.73,21.73,0,0,1-4.67-1.52,7.23,7.23,0,0,1-2.83-2.49,6.23,6.23,0,0,1-1-3.39,6.89,6.89,0,0,1,1.15-3.8,7.12,7.12,0,0,1,3.34-2.68,12,12,0,0,1,4.6-.86,12.5,12.5,0,0,1,4.89.91,7.49,7.49,0,0,1,3.45,2.79,7.93,7.93,0,0,1,1.29,4.13,1,1,0,0,1-.92,1l-3,.22a1,1,0,0,1-1-.89,3.72,3.72,0,0,0-1.24-2.63,5.26,5.26,0,0,0-3.37-.89,5.6,5.6,0,0,0-3.39.8,2,2,0,0,0-.89,1.65,1.65,1.65,0,0,0,.56,1.3c.21.19,1,.7,4.14,1.4a31.2,31.2,0,0,1,5.28,1.53,8,8,0,0,1,3.38,2.7,6.7,6.7,0,0,1,1.12,3.82,7.19,7.19,0,0,1-1.21,4,7.93,7.93,0,0,1-3.44,2.89A11.48,11.48,0,0,1,611.56,683.19Z"/><path d="M601.76,674.41l2.87-.25a6.36,6.36,0,0,0,1,2.83,5.24,5.24,0,0,0,2.31,1.79,8.85,8.85,0,0,0,3.53.68,8.34,8.34,0,0,0,3.07-.52,4.2,4.2,0,0,0,2-1.42,3.23,3.23,0,0,0,.65-2,3,3,0,0,0-.62-1.89,4.69,4.69,0,0,0-2.07-1.36,41.85,41.85,0,0,0-4.09-1.12,21.26,21.26,0,0,1-4.44-1.43,6.26,6.26,0,0,1-2.45-2.14,5.24,5.24,0,0,1-.81-2.86,5.86,5.86,0,0,1,1-3.26,6.16,6.16,0,0,1,2.88-2.29,11,11,0,0,1,4.22-.79,11.47,11.47,0,0,1,4.5.83,6.46,6.46,0,0,1,3,2.42,6.9,6.9,0,0,1,1.12,3.62l-2.91.22a4.73,4.73,0,0,0-1.59-3.29,6.22,6.22,0,0,0-4-1.12,6.38,6.38,0,0,0-4,1,3,3,0,0,0-1.26,2.43,2.6,2.6,0,0,0,.9,2q.87.79,4.58,1.64a31.51,31.51,0,0,1,5.09,1.46,7,7,0,0,1,3,2.35,5.65,5.65,0,0,1,.95,3.26,6.24,6.24,0,0,1-1,3.46,6.9,6.9,0,0,1-3,2.52,10.38,10.38,0,0,1-4.43.91,13.36,13.36,0,0,1-5.23-.91,7.38,7.38,0,0,1-3.31-2.74A7.82,7.82,0,0,1,601.76,674.41Z"/><path d="M640.32,682.79a1,1,0,0,1-1-1v-23a1,1,0,0,1,1-1h16.61a1,1,0,0,1,1,1v2.71a1,1,0,0,1-1,1H644.36v5h11.71a1,1,0,0,1,1,1v2.69a1,1,0,0,1-1,1H644.36v5.82h13.11a1,1,0,0,1,1,1v2.71a1,1,0,0,1-1,1Z"/><path d="M640.32,681.79v-23h16.61v2.71H643.36v7h12.71v2.69H643.36v7.82h14.11v2.71Z"/><path d="M677.78,682.79a1,1,0,0,1-1-1v-23a1,1,0,0,1,1-1H694.4a1,1,0,0,1,1,1v2.71a1,1,0,0,1-1,1H681.82v5h11.71a1,1,0,0,1,1,1v2.69a1,1,0,0,1-1,1H681.82v5.82h13.11a1,1,0,0,1,1,1v2.71a1,1,0,0,1-1,1Z"/><path d="M677.78,681.79v-23H694.4v2.71H680.82v7h12.71v2.69H680.82v7.82h14.11v2.71Z"/></g><g class="cls-1"><path d="M753.75,683.19a14.16,14.16,0,0,1-5.62-1,8.35,8.35,0,0,1-3.75-3.1,8.69,8.69,0,0,1-1.42-4.65,1,1,0,0,1,.91-1l2.87-.25h.09a1,1,0,0,1,1,.88,5.35,5.35,0,0,0,.78,2.39,4.32,4.32,0,0,0,1.88,1.43,7.8,7.8,0,0,0,3.13.6,7.47,7.47,0,0,0,2.71-.45,3.33,3.33,0,0,0,1.54-1.07,2.29,2.29,0,0,0,.46-1.38,2,2,0,0,0-.42-1.28,3.63,3.63,0,0,0-1.63-1,37.81,37.81,0,0,0-4-1.09,21.34,21.34,0,0,1-4.67-1.52,7.16,7.16,0,0,1-2.83-2.49,6.23,6.23,0,0,1-1-3.39A6.89,6.89,0,0,1,745,661a7.17,7.17,0,0,1,3.34-2.68,12,12,0,0,1,4.6-.86,12.56,12.56,0,0,1,4.9.91,7.49,7.49,0,0,1,3.45,2.79,8,8,0,0,1,1.29,4.13,1,1,0,0,1-.93,1l-3,.22a1,1,0,0,1-1-.89,3.71,3.71,0,0,0-1.23-2.63,5.28,5.28,0,0,0-3.37-.89,5.64,5.64,0,0,0-3.4.8,2,2,0,0,0-.89,1.65,1.63,1.63,0,0,0,.57,1.3c.21.19,1,.7,4.13,1.4a30.91,30.91,0,0,1,5.28,1.53,8,8,0,0,1,3.38,2.7,6.7,6.7,0,0,1,1.13,3.82,7.27,7.27,0,0,1-1.21,4,7.93,7.93,0,0,1-3.44,2.89A11.56,11.56,0,0,1,753.75,683.19Z"/><path d="M744,674.41l2.86-.25a6.48,6.48,0,0,0,.95,2.83,5.24,5.24,0,0,0,2.31,1.79,8.85,8.85,0,0,0,3.53.68,8.3,8.3,0,0,0,3.07-.52,4.28,4.28,0,0,0,2-1.42,3.29,3.29,0,0,0,.65-2,3,3,0,0,0-.63-1.89,4.69,4.69,0,0,0-2.07-1.36,41.85,41.85,0,0,0-4.09-1.12,21.26,21.26,0,0,1-4.44-1.43,6.33,6.33,0,0,1-2.45-2.14,5.24,5.24,0,0,1-.81-2.86,5.86,5.86,0,0,1,1-3.26,6.14,6.14,0,0,1,2.89-2.29,11,11,0,0,1,4.21-.79,11.52,11.52,0,0,1,4.51.83,6.48,6.48,0,0,1,3,2.42,6.91,6.91,0,0,1,1.13,3.62l-2.92.22a4.65,4.65,0,0,0-1.59-3.29,6.19,6.19,0,0,0-4-1.12,6.38,6.38,0,0,0-4,1,3,3,0,0,0-1.27,2.43,2.6,2.6,0,0,0,.9,2q.87.79,4.58,1.64a31.51,31.51,0,0,1,5.09,1.46,7,7,0,0,1,3,2.35,5.66,5.66,0,0,1,1,3.26,6.24,6.24,0,0,1-1,3.46,6.93,6.93,0,0,1-3,2.52,10.38,10.38,0,0,1-4.43.91,13.27,13.27,0,0,1-5.22-.91,7.33,7.33,0,0,1-3.31-2.74A7.73,7.73,0,0,1,744,674.41Z"/></g><g class="cls-1"><path d="M786.15,682.79a1,1,0,0,1-1-1V662.53h-6.57a1,1,0,0,1-1-1v-2.71a1,1,0,0,1,1-1h18.21a1,1,0,0,1,1,1v2.71a1,1,0,0,1-1,1h-6.6v19.26a1,1,0,0,1-1,1Z"/><path d="M786.15,681.79V661.53h-7.57v-2.71h18.21v2.71h-7.6v20.26Z"/><path d="M825.1,683.19a12,12,0,0,1-5.76-1.24,7.35,7.35,0,0,1-3.38-3.71,16.26,16.26,0,0,1-1-6.15V658.82a1,1,0,0,1,1-1h3a1,1,0,0,1,1,1v13.26a12.19,12.19,0,0,0,.48,4A3.16,3.16,0,0,0,822,677.8a5.6,5.6,0,0,0,2.82.64c1.94,0,3.3-.4,4-1.2.53-.56,1.16-1.92,1.16-5.16V658.82a1,1,0,0,1,1-1h3a1,1,0,0,1,1,1v13.27a16.51,16.51,0,0,1-.85,5.86,7.74,7.74,0,0,1-3.24,3.81A11,11,0,0,1,825.1,683.19Z"/><path d="M831,658.82h3v13.27a15.48,15.48,0,0,1-.79,5.5,6.67,6.67,0,0,1-2.83,3.32,10,10,0,0,1-5.36,1.28,11.07,11.07,0,0,1-5.29-1.12,6.38,6.38,0,0,1-2.93-3.22,15.43,15.43,0,0,1-.87-5.76V658.82h3v13.26a13,13,0,0,0,.55,4.41,4.29,4.29,0,0,0,1.91,2.19,6.68,6.68,0,0,0,3.32.76c2.24,0,3.83-.5,4.78-1.52s1.43-3,1.43-5.84Z"/><path d="M855.19,682.79a1,1,0,0,1-1-1v-23a1,1,0,0,1,1-1h7.92a19.82,19.82,0,0,1,4.31.35,8.8,8.8,0,0,1,3.8,1.86,10.43,10.43,0,0,1,3,4.34,16.42,16.42,0,0,1,1,5.81,17,17,0,0,1-.66,4.93,12.31,12.31,0,0,1-1.71,3.64,8.73,8.73,0,0,1-5.41,3.62,16.74,16.74,0,0,1-3.93.42Zm7.95-4.71a10.92,10.92,0,0,0,3.25-.37,4.12,4.12,0,0,0,1.67-1,6.39,6.39,0,0,0,1.44-2.51,13.25,13.25,0,0,0,.55-4.12,9.93,9.93,0,0,0-1-5,5.08,5.08,0,0,0-2.39-2.18,10.79,10.79,0,0,0-3.57-.4h-3.83v15.55Z"/><path d="M855.19,681.79v-23h7.92a19.18,19.18,0,0,1,4.09.33,7.82,7.82,0,0,1,3.37,1.64,9.46,9.46,0,0,1,2.72,3.93,15.4,15.4,0,0,1,.9,5.46,16.3,16.3,0,0,1-.61,4.64,11.34,11.34,0,0,1-1.57,3.35,7.71,7.71,0,0,1-4.84,3.23,15.71,15.71,0,0,1-3.69.39Zm3-2.71h4.91a12,12,0,0,0,3.56-.42,5,5,0,0,0,2.06-1.19,7.11,7.11,0,0,0,1.69-2.91,14.29,14.29,0,0,0,.6-4.43,10.69,10.69,0,0,0-1.18-5.54A6,6,0,0,0,867,662a11.66,11.66,0,0,0-3.93-.47h-4.83Z"/><rect x="893.94" y="657.82" width="5.04" height="24.98" rx="1"/><path d="M894.94,681.79v-23h3v23Z"/><path d="M929.45,683.19a11.89,11.89,0,0,1-6.32-1.72,11.14,11.14,0,0,1-4.25-4.69,14.05,14.05,0,0,1-1.41-6.18c0-4.06,1.12-7.3,3.34-9.64a11.45,11.45,0,0,1,8.66-3.55,12.1,12.1,0,0,1,6.25,1.66,11,11,0,0,1,4.28,4.66,14.89,14.89,0,0,1,1.44,6.61,14.6,14.6,0,0,1-1.52,6.71,10.64,10.64,0,0,1-4.41,4.59A12.36,12.36,0,0,1,929.45,683.19Zm0-21.16a6.72,6.72,0,0,0-4.86,1.94c-1.34,1.27-2,3.52-2,6.68a8.3,8.3,0,0,0,2,5.86,6.8,6.8,0,0,0,9.79,0,8.82,8.82,0,0,0,2-6.17,10.78,10.78,0,0,0-.86-4.48,6.28,6.28,0,0,0-2.4-2.82A6.48,6.48,0,0,0,929.48,662Z"/><path d="M918.47,670.6q0-5.72,3.07-9a10.44,10.44,0,0,1,7.93-3.24,11.07,11.07,0,0,1,5.74,1.52,9.91,9.91,0,0,1,3.89,4.24,13.81,13.81,0,0,1,1.34,6.17,13.53,13.53,0,0,1-1.41,6.25,9.63,9.63,0,0,1-4,4.18,11.46,11.46,0,0,1-5.58,1.42,10.94,10.94,0,0,1-5.8-1.57,10.14,10.14,0,0,1-3.87-4.28A12.94,12.94,0,0,1,918.47,670.6Zm3.13,0a9.18,9.18,0,0,0,2.23,6.54,7.8,7.8,0,0,0,11.26,0q2.22-2.42,2.22-6.85a11.83,11.83,0,0,0-.95-4.9,7.36,7.36,0,0,0-2.78-3.24,7.48,7.48,0,0,0-4.1-1.15,7.79,7.79,0,0,0-5.55,2.21Q921.61,665.46,921.6,670.65Z"/></g></g></svg>