<svg xmlns="http://www.w3.org/2000/svg" viewBox="0 0 820.82 294.9"><defs><style>.cls-1,.cls-10,.cls-11,.cls-7,.cls-9{fill:#fff;}.cls-2,.cls-3,.cls-4,.cls-5{fill:none;stroke:#fff;}.cls-2,.cls-3,.cls-5{stroke-miterlimit:10;}.cls-2,.cls-5{stroke-width:2px;}.cls-3,.cls-4,.cls-5{stroke-linecap:round;}.cls-3{stroke-width:1.5px;}.cls-4{stroke-linejoin:round;stroke-width:2.5px;}.cls-10,.cls-11,.cls-6,.cls-7,.cls-9{isolation:isolate;}.cls-10,.cls-11,.cls-7,.cls-9{font-size:32.1px;font-family:ArialMT, Arial;}.cls-7{letter-spacing:0.5em;}.cls-8{letter-spacing:0.48em;}.cls-9{letter-spacing:0.41em;}.cls-10{letter-spacing:0.5em;}.cls-11{letter-spacing:0.49em;}</style></defs><g id="圖層_2" data-name="圖層 2"><g id="圖層_1-2" data-name="圖層 1"><g id="圖層_3" data-name="圖層 3"><path class="cls-1" d="M813.12,21.06c-.16,39.77-.51,129.38-.67,168.09.32,6.84-2.17,14-7.46,18.61a45.21,45.21,0,0,1-11.35,7.48c-4.16,2-9,1.94-13.42,1.75a.34.34,0,0,1-.34-.34h0a.35.35,0,0,1,.34-.35c4.46.14,9,.16,13.1-1.81a44.4,44.4,0,0,0,11-7.44,21,21,0,0,0,6.44-11.3c.9-3.72.38-9.46.47-13.33-.19-34.26-.72-126-.92-161.36a1.39,1.39,0,0,1,2.77-.24,1,1,0,0,1,0,.24Z"/><path class="cls-2" d="M644.12,27.16h63a3,3,0,0,1,3,3l-.44,50.93a3,3,0,0,1-3,3H645.19"/><path class="cls-2" d="M812.48,25.63h-63a3,3,0,0,0-3,3l.44,50.93a3,3,0,0,0,3,3h61.44"/><line class="cls-3" x1="646.59" y1="55.63" x2="709.62" y2="55.63"/><line class="cls-3" x1="747.44" y1="54.26" x2="810.47" y2="54.26"/><line class="cls-4" x1="769.82" y1="104.64" x2="769.82" y2="182.6"/><line class="cls-4" x1="683.16" y1="108.92" x2="683.16" y2="186.88"/><path class="cls-1" d="M692,110.46l78.15-.43a.75.75,0,0,1,0,1.5L692,111.11a.33.33,0,1,1-.11-.65H692Z"/><path class="cls-1" d="M683.54,177.23l78,.43a.32.32,0,0,1,.33.31h0a.33.33,0,0,1-.33.33h0l-78,.42a.75.75,0,0,1,0-1.5Z"/><path class="cls-1" d="M646.83,22.32c.06,45.85.17,124.52.23,169.61a23.87,23.87,0,0,1-8.16,18.3,1.12,1.12,0,0,1-1.58-.22,1.13,1.13,0,0,1,.12-1.5c6.42-5.49,7.72-13,7.27-21l-.13-23.59c-.16-30-.58-110.56-.75-141.59a1.5,1.5,0,0,1,3,0Z"/><path class="cls-1" d="M18.8,9.9C41.44,12.45,61,30.05,66.14,52.35a2,2,0,1,1-3.88,1l0-.15c-3.94-21.43-22-38.87-43.58-42.29a.51.51,0,0,1-.43-.57.51.51,0,0,1,.58-.43h0Z"/><path class="cls-1" d="M14,66.91C28,70.22,39.73,83.72,47.77,95.1c.79,1.15,2.33,3.47,3,4.66a66.14,66.14,0,0,1,9.67,26.31c5,34.68-17.63,66.63-45,85.48a2.5,2.5,0,0,1-3-4l.17-.12c26.72-17.59,49-47.62,45-81A63.46,63.46,0,0,0,48.83,101c-.69-1.17-2.14-3.51-2.9-4.64-6-9.07-13.23-17.65-22.35-23.74a30.84,30.84,0,0,0-9.89-4.44.63.63,0,0,1,.24-1.23Z"/><path class="cls-1" d="M117.7,7.08c-2,16.91-6,33.84-13.6,49.17C96.28,71.43,85.68,84.88,74.89,98a.57.57,0,0,1-.79.1l0,0a.57.57,0,0,1-.09-.81c10.48-13.19,20.8-26.78,28.25-41.93C109.41,40.13,113,23.38,114.72,6.75a1.51,1.51,0,1,1,3,.33Z"/><line class="cls-5" x1="129.74" y1="37.45" x2="180.16" y2="36.95"/><path class="cls-1" d="M183.67,29.84,182.05,77.1a19.27,19.27,0,0,1-1.17,6.15c-5.06,13.9-24,17-36.92,14.78a.49.49,0,0,1-.41-.56h0a.5.5,0,0,1,.57-.41c12.12,1.82,30.57-1.34,35-14.45,1.7-1,1.21-50,1.55-52.85a1.5,1.5,0,1,1,3,.09Z"/><line class="cls-5" x1="130.26" y1="114.73" x2="180.54" y2="114.73"/><path class="cls-1" d="M186.12,104.65c-10.88,35.39-33.53,68-65.16,87.81-12.66,7.88-26.7,13.36-41.08,17.13-7.17,1.91-14.5,3.29-21.67,4.68a.87.87,0,0,1-1-.69.86.86,0,0,1,.68-1c7.21-1.48,14.43-2.91,21.52-4.87,37.4-9.82,65.32-31.5,85.63-64.21a162.44,162.44,0,0,0,17.75-39.84,1.75,1.75,0,0,1,3.36,1Z"/><path class="cls-1" d="M99.48,132c21.77,42.57,64.12,73.57,111.26,81.48a1.76,1.76,0,1,1-.4,3.5l-.25-.05A157.44,157.44,0,0,1,98.32,132.56a.65.65,0,1,1,1.16-.59Z"/><path class="cls-1" d="M753.5,153.18A78.9,78.9,0,0,0,701,141.82a1.71,1.71,0,1,1-.47-3.39,81.3,81.3,0,0,1,53.66,13.71.62.62,0,0,1-.69,1Z"/><path class="cls-1" d="M482.78,97.56c0,6-.16,77.63-.17,81.72.08,12.11-2.52,25.77-12.23,34a29.52,29.52,0,0,1-17,7.37,27.74,27.74,0,0,1-9.33-1,.52.52,0,0,1-.37-.64.53.53,0,0,1,.64-.36,26.77,26.77,0,0,0,9,.81,28.21,28.21,0,0,0,16.17-7.29c9.25-8,11.49-21.24,11.25-32.94,0-3.83-.9-76-1-81.7a1.5,1.5,0,1,1,3,0Z"/><line class="cls-5" x1="387.91" y1="79.99" x2="504.71" y2="79.99"/><line class="cls-5" x1="387.91" y1="37.2" x2="504.71" y2="37.2"/><line class="cls-5" x1="444.46" y1="1" x2="444.46" y2="79.99"/><line class="cls-5" x1="387.66" y1="118.14" x2="504.28" y2="118.14"/><path class="cls-1" d="M399,135.72c22.63,2.62,42.15,20.28,47.2,42.6a2,2,0,1,1-3.86,1,1.55,1.55,0,0,1-.05-.23c-3.87-21.44-21.91-38.94-43.45-42.42a.51.51,0,0,1,.16-1Z"/><path class="cls-1" d="M361.77,102.56c-5.68-12.45-19-20.81-32.72-19.62a1,1,0,1,1-.15-2c14.27-.85,28.08,8.23,33.56,21.3a.38.38,0,0,1-.69.31Z"/><line class="cls-4" x1="321.53" y1="22.11" x2="321.53" y2="178.32"/><line class="cls-4" x1="368.02" y1="13.55" x2="368.02" y2="168.69"/><path class="cls-1" d="M329.88,23.05,368,22.63a.76.76,0,0,1,.76.74h0a.76.76,0,0,1-.75.76l-38.15-.43a.33.33,0,0,1,0-.65Z"/><path class="cls-1" d="M321.7,166.25l39.21.43a.33.33,0,0,1,0,.65l-39.21.42a.75.75,0,0,1,0-1.5Z"/><g class="cls-6"><text class="cls-7" transform="translate(0 284.48)">NO<tspan class="cls-8" x="80.25" y="0"> </tspan><tspan x="104.64" y="0">TIME </tspan></text><text class="cls-9" transform="translate(282.69 284.48)">L</text><text class="cls-10" transform="translate(316.97 284.48)">ONG SEE </text><text class="cls-11" transform="translate(605.4 284.48)">S</text><text class="cls-7" transform="translate(640.71 284.48)">TUDIO</text></g></g></g></g></svg>