<svg xmlns="http://www.w3.org/2000/svg" viewBox="0 0 641.72 216.84"><defs><style>.cls-1{font-size:24.55px;font-family:LINESeedTW_TTF-Regular, LINE Seed TW_TTF;letter-spacing:0.5em;}.cls-1,.cls-4{fill:#fff;}.cls-2{letter-spacing:0.45em;}.cls-3{letter-spacing:0.49em;}.cls-5,.cls-7,.cls-8,.cls-9{fill:none;}.cls-5,.cls-6,.cls-7,.cls-8,.cls-9{stroke:#fff;}.cls-5,.cls-6,.cls-8{stroke-miterlimit:10;}.cls-5,.cls-7{stroke-width:4px;}.cls-6,.cls-7,.cls-8,.cls-9{stroke-linecap:round;}.cls-6{stroke-width:3px;}.cls-7,.cls-9{stroke-linejoin:round;}.cls-8,.cls-9{stroke-width:5px;}</style></defs><g id="圖層_2" data-name="圖層 2"><g id="圖層_1-2" data-name="圖層 1"><text class="cls-1" transform="translate(0 210.31)">NO TIME <tspan class="cls-2" x="219.64" y="0">L</tspan><tspan x="246.18" y="0">ONG SEE </tspan><tspan class="cls-3" x="469.48" y="0">S</tspan><tspan x="496.76" y="0">TUDIO</tspan></text><path class="cls-4" d="M630.87,17.84c0,.18-1.51,129.82-1.53,130a23.74,23.74,0,0,1-17,20.33,22.87,22.87,0,0,1-9.23.69,1,1,0,0,1,.23-2,20.66,20.66,0,0,0,8.35-.88,21.05,21.05,0,0,0,14.62-18.41c0,.56-2.42-129.86-2.41-129.71a3.5,3.5,0,1,1,7,0Z"/><path class="cls-5" d="M499.13,22.51h47.52a3,3,0,0,1,3,3l-.33,37.54a3,3,0,0,1-3,3H500"/><path class="cls-5" d="M627.94,21.33H580.42a3,3,0,0,0-3,3l.33,37.54a3,3,0,0,0,3,3h46.28"/><line class="cls-6" x1="501.06" y1="44.28" x2="549.27" y2="44.28"/><line class="cls-6" x1="578.19" y1="43.23" x2="626.4" y2="43.23"/><line class="cls-7" x1="595.31" y1="81.76" x2="595.31" y2="141.39"/><line class="cls-7" x1="529.03" y1="85.04" x2="529.03" y2="144.66"/><path class="cls-4" d="M535.77,85.81,595.55,85a1.5,1.5,0,1,1,0,3l-59.78-.85a.65.65,0,0,1,0-1.3Z"/><path class="cls-4" d="M529.32,136.36l59.64.85a.65.65,0,0,1,0,1.3l-59.64.85a1.5,1.5,0,0,1,0-3Z"/><path class="cls-4" d="M503.33,18.8c.08,35.72.44,95.94.45,131.07a21.93,21.93,0,0,1-1,5.36,20.06,20.06,0,0,1-6,9.14,2.42,2.42,0,0,1-3.14-3.69,15.06,15.06,0,0,0,4.47-7c.91-2.7.72-5.74.67-8.56-.17-11.43-.63-42.32-.81-54.14l-1.07-72.2a3.23,3.23,0,1,1,6.46,0Z"/><path class="cls-4" d="M20.91,9.31A43.5,43.5,0,0,1,53.79,28.78a45.72,45.72,0,0,1,5.74,12.48,4,4,0,1,1-7.82,1.65c-2.47-15.74-15.35-28.69-31.1-31.63a1,1,0,0,1,.3-2Z"/><path class="cls-4" d="M17.4,51.89C32.17,55,48,75.32,52.56,89.2c.34,1.29,1,3,1.26,4.31l.9,4.4c.08.82.5,4.85.56,5.58a59.83,59.83,0,0,1-2.94,21.05,66.44,66.44,0,0,1-7.7,16.13,96.47,96.47,0,0,1-24.52,25.42A4.5,4.5,0,1,1,15,158.68a88.19,88.19,0,0,0,23.57-22.1c7.12-9.77,11.43-21.79,11.19-34a50.12,50.12,0,0,0-8.69-26.83C35.28,67.05,27.42,57.09,17,54.1a1.13,1.13,0,0,1,.43-2.21Z"/><path class="cls-4" d="M98.72,14.8A164.69,164.69,0,0,1,81.05,78.54a1,1,0,0,1-1.89-.85,161.67,161.67,0,0,0,9-31.23,158.7,158.7,0,0,0,2.52-32,4,4,0,1,1,8,.31Z"/><line class="cls-8" x1="105.76" y1="30.37" x2="144.32" y2="29.99"/><path class="cls-4" d="M149.36,24.66l-1.67,27.73c-.17,2.34-.16,5.4-1,7.62-2.61,8.41-12.81,13.31-20.48,8.18a1.17,1.17,0,0,1,1.18-2c7.4,4.24,16.17-2.45,15.69-10.46L143,52.25l-.66-27.87a3.51,3.51,0,1,1,7,.28Z"/><line class="cls-8" x1="106.16" y1="89.48" x2="144.62" y2="89.48"/><path class="cls-4" d="M151,82.39c-8.47,27.58-26.12,53-50.77,68.38a116.32,116.32,0,0,1-32,13.36c-5.56,1.47-11.27,2.55-16.69,3.6a1.75,1.75,0,0,1-.7-3.43c5.5-1.22,11-2.4,16.39-4,16-4.6,31.4-12.35,43.53-23.9a121.62,121.62,0,0,0,33.54-56,3.5,3.5,0,1,1,6.7,2Z"/><path class="cls-4" d="M82.62,102.68a117.79,117.79,0,0,0,59.69,53.16,118.3,118.3,0,0,0,25.8,7,3.5,3.5,0,1,1-1.29,6.88,123,123,0,0,1-71.31-42.35,124.21,124.21,0,0,1-15.22-23.55,1.31,1.31,0,0,1,2.33-1.18Z"/><path class="cls-4" d="M582.83,118.89a60.16,60.16,0,0,0-19.63-7.08,58.92,58.92,0,0,0-20.35.07,3,3,0,1,1-.63-6,63.53,63.53,0,0,1,41.83,11.15,1.1,1.1,0,0,1-1.22,1.82Z"/><path class="cls-4" d="M378.12,76.33c0,4.63-.53,59.4-.57,62.53,0,8.64-1.72,17.75-7.38,24.56-4.32,4.79-10.23,8.21-16.75,8.64a22.71,22.71,0,0,1-7.67-.84,1.17,1.17,0,0,1,.58-2.26,19.57,19.57,0,0,0,13.42-1.43c10.37-4.88,13.77-16.27,13.49-27-.15-4.29-1.92-58.4-2.12-64.2a3.5,3.5,0,1,1,7,0Z"/><line class="cls-8" x1="303.21" y1="62.91" x2="392.55" y2="62.91"/><line class="cls-8" x1="303.21" y1="30.18" x2="392.55" y2="30.18"/><line class="cls-8" x1="346.47" y1="2.5" x2="346.47" y2="62.91"/><line class="cls-8" x1="303.02" y1="92.09" x2="392.22" y2="92.09"/><path class="cls-4" d="M311.71,105.54a43.15,43.15,0,0,1,32.16,19.94,44.77,44.77,0,0,1,5.38,12.34,3,3,0,1,1-5.87,1.21c-2.64-16-15.87-29.15-31.9-32a.75.75,0,0,1,.23-1.48Z"/><path class="cls-4" d="M283.22,80.14c-4.66-9.18-14.76-15.08-25-13.77a2,2,0,0,1-.48-4c11.44-.7,22.54,6.65,26.82,17.15a.75.75,0,0,1-1.38.6Z"/><line class="cls-9" x1="252.44" y1="18.64" x2="252.44" y2="138.12"/><line class="cls-9" x1="288" y1="12.09" x2="288" y2="130.75"/><path class="cls-4" d="M258.83,19,288,18.11a1.5,1.5,0,0,1,.09,3s-29.22-.85-29.26-.85a.65.65,0,0,1,0-1.3Z"/><path class="cls-4" d="M252.58,128l30,.85a.65.65,0,0,1,0,1.3l-30,.85a1.5,1.5,0,1,1,0-3Z"/></g></g></svg>