<svg id="圖層_1" data-name="圖層 1" xmlns="http://www.w3.org/2000/svg" xmlns:xlink="http://www.w3.org/1999/xlink" viewBox="0 0 700 700"><defs><style>.cls-1,.cls-3,.cls-4,.cls-5{fill:none;}.cls-1,.cls-2,.cls-3,.cls-4,.cls-5{stroke:#000;}.cls-1,.cls-2,.cls-4{stroke-miterlimit:10;}.cls-1,.cls-3{stroke-width:4px;}.cls-2,.cls-3,.cls-4,.cls-5{stroke-linecap:round;}.cls-2{stroke-width:3px;}.cls-3,.cls-5{stroke-linejoin:round;}.cls-4,.cls-5{stroke-width:5px;}.cls-6{opacity:0.1;}.cls-7{fill:url(#未命名漸層_61);}.cls-8{fill:url(#未命名漸層_67);}.cls-9{fill:url(#未命名漸層_61-2);}.cls-10{fill:url(#未命名漸層_61-3);}.cls-11{fill:url(#未命名漸層_61-4);}.cls-12{fill:url(#未命名漸層_58);}.cls-13{font-size:22.42px;font-family:LINESeedTW_TTF-Bold, LINE Seed TW_TTF;font-weight:700;}</style><linearGradient id="未命名漸層_61" x1="516.21" y1="286.41" x2="369.31" y2="31.96" gradientUnits="userSpaceOnUse"><stop offset="0"/><stop offset="0.14" stop-color="#5e5e5e" stop-opacity="0.63"/><stop offset="1" stop-color="#fff" stop-opacity="0"/></linearGradient><linearGradient id="未命名漸層_67" x1="378.65" y1="173.44" x2="86.93" y2="173.44" gradientUnits="userSpaceOnUse"><stop offset="0" stop-color="#fff"/><stop offset="0.02" stop-color="#656565" stop-opacity="0.93"/><stop offset="0.04" stop-opacity="0.89"/><stop offset="0.17" stop-color="#5e5e5e" stop-opacity="0.56"/><stop offset="1" stop-color="#fff" stop-opacity="0"/></linearGradient><linearGradient id="未命名漸層_61-2" x1="407.11" y1="289.83" x2="627.55" y2="289.83" xlink:href="#未命名漸層_61"/><linearGradient id="未命名漸層_61-3" x1="322.91" y1="524.03" x2="615.05" y2="524.03" xlink:href="#未命名漸層_61"/><linearGradient id="未命名漸層_61-4" x1="213.18" y1="238.78" x2="67.43" y2="491.23" xlink:href="#未命名漸層_61"/><linearGradient id="未命名漸層_58" x1="184.45" y1="411.67" x2="330.35" y2="664.36" gradientUnits="userSpaceOnUse"><stop offset="0"/><stop offset="0.13" stop-color="#535353" stop-opacity="0.67"/><stop offset="1" stop-color="#fff" stop-opacity="0"/></linearGradient></defs><path d="M643.34,285c0,.18-1.51,123.67-1.53,123.84a22.69,22.69,0,0,1-16.3,19.43,21.92,21.92,0,0,1-8.82.66,1,1,0,0,1,.24-2,19.72,19.72,0,0,0,7.94-.83,20,20,0,0,0,13.88-17.53c0,.56-2.42-123.7-2.41-123.55a3.5,3.5,0,1,1,7,0Z"/><path class="cls-1" d="M517.68,289.41H562.8a3,3,0,0,1,3,3l-.3,35.48a3,3,0,0,1-3,3h-44"/><path class="cls-1" d="M640.38,288.3H595.26a3,3,0,0,0-3,3l.31,35.48a3,3,0,0,0,3,3h44"/><line class="cls-2" x1="519.52" y1="310.15" x2="565.44" y2="310.15"/><line class="cls-2" x1="593" y1="309.16" x2="638.92" y2="309.16"/><line class="cls-3" x1="609.3" y1="345.86" x2="609.3" y2="402.66"/><line class="cls-3" x1="546.16" y1="348.98" x2="546.16" y2="405.78"/><path d="M552.59,349.69l56.94-.85a1.5,1.5,0,1,1,0,3l-57-.85a.65.65,0,0,1,0-1.3Z"/><path d="M546.44,397.8l56.82.85a.65.65,0,0,1,0,1.3l-56.82.85a1.5,1.5,0,0,1,0-3Z"/><path d="M521.83,285.88c.09,34,.44,91.4.45,124.87a20.69,20.69,0,0,1-.95,5.15,19.27,19.27,0,0,1-5.8,8.79,2.42,2.42,0,1,1-3.14-3.69,14.45,14.45,0,0,0,4.24-6.63c.85-2.57.67-5.46.62-8.13-.17-10.89-.63-40.31-.8-51.58l-1.08-68.78a3.23,3.23,0,1,1,6.46,0Z"/><path d="M62.12,276.84a41.56,41.56,0,0,1,31.45,18.48,44.26,44.26,0,0,1,5.53,11.92,4,4,0,1,1-7.83,1.65C89,293.94,76.76,281.64,61.82,278.82a1,1,0,0,1,.3-2Z"/><path d="M58.79,317.32c14.14,2.95,29.2,22.3,33.62,35.59.33,1.23,1,2.87,1.21,4.11l.86,4.2c.09.79.49,4.63.55,5.34a57.57,57.57,0,0,1-2.79,20.11A63.91,63.91,0,0,1,84.9,402.1a92,92,0,0,1-23.39,24.3A4.5,4.5,0,1,1,56.4,419a84,84,0,0,0,22.44-21c6.78-9.28,10.89-20.7,10.68-32.27a47.63,47.63,0,0,0-8.24-25.52c-5.52-8.35-13-17.8-22.92-20.68a1.13,1.13,0,0,1,.43-2.21Z"/><path d="M136.43,282.08A157.17,157.17,0,0,1,126,328.44q-2.89,7.37-6.49,14.4a1,1,0,0,1-1.89-.86,154,154,0,0,0,8.52-29.77,150.87,150.87,0,0,0,2.31-30.45,4,4,0,1,1,8,.32Z"/><line class="cls-4" x1="142.94" y1="296.91" x2="179.68" y2="296.54"/><path d="M184.65,291.47,183,317.88c-.16,2.25-.16,5.17-.94,7.29-2.51,8.09-12.33,12.79-19.69,7.85a1.17,1.17,0,0,1,1.17-2c7,4,15.37-2.34,14.88-10l-.09-3.3-.71-26.55a3.51,3.51,0,1,1,7,.27Z"/><line class="cls-4" x1="143.32" y1="353.21" x2="179.96" y2="353.21"/><path d="M186.17,346.51c-8.09,26.31-24.93,50.55-48.44,65.23a110.86,110.86,0,0,1-30.53,12.74c-5.3,1.41-10.76,2.43-15.9,3.44a1.75,1.75,0,0,1-.71-3.43c5.24-1.17,10.48-2.3,15.61-3.82,15.27-4.4,29.89-11.79,41.42-22.8a115.67,115.67,0,0,0,31.84-53.38,3.5,3.5,0,1,1,6.71,2Z"/><path d="M120.9,365.79A111.88,111.88,0,0,0,202.37,423a3.5,3.5,0,1,1-1.29,6.88A116.54,116.54,0,0,1,118.58,367a1.3,1.3,0,0,1,2.32-1.18Z"/><path d="M597.41,381.22a57.28,57.28,0,0,0-18.72-6.66,55.62,55.62,0,0,0-19.35.14,3,3,0,1,1-.62-6,61.12,61.12,0,0,1,21,1.85,60.46,60.46,0,0,1,19,8.83,1.09,1.09,0,0,1-1.22,1.81Z"/><path d="M402.57,340.68c0,4.41-.54,56.59-.57,59.57,0,8.26-1.66,17-7.07,23.48-5.69,6.51-14.94,10.06-23.39,7.46a1.17,1.17,0,0,1,.58-2.26,19.42,19.42,0,0,0,18.06-5.06c6.46-5.87,7.8-15.35,7.44-23.67-.09-2.79-1.91-55.36-2.05-59.51a3.5,3.5,0,1,1,7,0Z"/><line class="cls-4" x1="331.04" y1="327.91" x2="416.15" y2="327.91"/><line class="cls-4" x1="331.04" y1="296.72" x2="416.15" y2="296.72"/><line class="cls-4" x1="372.25" y1="270.35" x2="372.25" y2="327.91"/><line class="cls-4" x1="330.86" y1="355.7" x2="415.83" y2="355.7"/><path d="M339.14,368.51a41.16,41.16,0,0,1,30.73,18.94A43,43,0,0,1,375,399.23a3,3,0,1,1-5.86,1.31c-2.45-15.26-15-27.8-30.27-30.55a.75.75,0,0,1,.23-1.48Z"/><path d="M312,344.31a24.31,24.31,0,0,0-16.83-12.79,22.82,22.82,0,0,0-6.94-.23,2,2,0,1,1-.21-4,26.13,26.13,0,0,1,15.32,4.29,27.23,27.23,0,0,1,10,12.12.75.75,0,0,1-1.37.6Z"/><line class="cls-5" x1="282.68" y1="285.73" x2="282.68" y2="399.54"/><line class="cls-5" x1="316.55" y1="279.49" x2="316.55" y2="392.53"/><path d="M288.77,286l27.78-.85a1.5,1.5,0,0,1,.1,3s-27.84-.86-27.88-.85a.65.65,0,0,1,0-1.3Z"/><path d="M282.81,389.8l28.56.85a.64.64,0,0,1,.63.67.65.65,0,0,1-.63.63l-28.56.85a1.5,1.5,0,1,1,0-3Z"/><g class="cls-6"><path class="cls-7" d="M289.69,77.93c83.4-23.28,192.52,7.76,254,72.22-35,59.68-70.22,119.68-106.81,182.06Z"/><path class="cls-8" d="M378.65,265.32H86.93c11.84-60.5,77.85-153.18,185.4-183.75C307.41,142.21,342.65,203.11,378.65,265.32Z"/><path class="cls-9" d="M617.69,416.44H407.11L555.5,163.21C618.82,227.79,642.94,337.34,617.69,416.44Z"/><path class="cls-10" d="M322.91,434H615.05c-8.74,18.61-15.47,36.15-24.78,52.19-35.62,61.4-87.68,103.07-154.87,125.85-5.51,1.87-10.14,4.47-14.55-3.41-31.62-56.4-63.8-112.48-95.76-168.68C324.32,438.62,324,437,322.91,434Z"/><path class="cls-11" d="M290.94,283.68,146.64,537C139,527.79,132,520.28,126,512,78.82,445.9,63,372.88,77.77,293c1.46-7.94,4.34-10.32,12.18-10.29,64.81.24,129.62.1,194.43.1A63.88,63.88,0,0,1,290.94,283.68Z"/><path class="cls-12" d="M407.87,619.6c-95.55,16.76-177.48-5.88-249.07-70L263.43,366.07Z"/></g><path d="M614.71,239.46c-67.14-170-274.42-236.83-426-132.57-47.28,32.25-84.29,79-105.83,131.9A293.12,293.12,0,0,1,188.1,106c122.68-86.31,294.23-59.73,386.82,57.74A297.17,297.17,0,0,1,618.42,238a2,2,0,1,1-3.71,1.49Z"/><path d="M84.78,460.54c67.14,170,274.42,236.83,426,132.57,47.28-32.25,84.29-79,105.83-131.9A293.12,293.12,0,0,1,511.39,594c-122.68,86.31-294.23,59.73-386.82-57.74A296.57,296.57,0,0,1,81.07,462a2,2,0,1,1,3.71-1.49Z"/><text class="cls-13" transform="matrix(0.65, 0.76, -0.76, 0.65, 126.75, 514.24)">N</text><text class="cls-13" transform="translate(143.99 533.93) rotate(44.13)">O</text><text class="cls-13" transform="matrix(0.77, 0.64, -0.64, 0.77, 164.57, 553.17)"> </text><text class="cls-13" transform="matrix(0.81, 0.59, -0.59, 0.81, 176.26, 562.8)">T</text><text class="cls-13" transform="translate(195.68 576.43) rotate(32.23)">I</text><text class="cls-13" transform="matrix(0.89, 0.46, -0.46, 0.89, 208.11, 584.29)">M</text><text class="cls-13" transform="matrix(0.93, 0.38, -0.38, 0.93, 235.55, 598.08)">E</text><text class="cls-13" transform="translate(256.44 606.25) rotate(18.5)"> </text><text class="cls-13" transform="translate(270.85 610.93) rotate(14.69)">L</text><text class="cls-13" transform="translate(291.44 616.18) rotate(9.78)">O</text><text class="cls-13" transform="translate(319.51 620.58) rotate(4.25)">N</text><text class="cls-13" transform="translate(345.49 622.19) rotate(-1.06)">G</text><text class="cls-13" transform="translate(372.69 621.19) rotate(-5.32)"> </text><text class="cls-13" transform="translate(387.72 619.66) rotate(-9.06)">S</text><text class="cls-13" transform="translate(409.42 615.91) rotate(-13.59)">E</text><text class="cls-13" transform="translate(431.31 610.3) rotate(-18.19)">E</text><text class="cls-13" transform="translate(452.51 602.95) rotate(-22)"> </text><text class="cls-13" transform="translate(466.5 597.15) rotate(-25.75)">S</text><text class="cls-13" transform="translate(486.02 587.46) rotate(-30.3)">T</text><text class="cls-13" transform="matrix(0.82, -0.58, 0.58, 0.82, 506.55, 575.12)">U</text><text class="cls-13" transform="translate(527.35 560.01) rotate(-40.37)">D</text><text class="cls-13" transform="matrix(0.72, -0.7, 0.7, 0.72, 546.85, 542.83)">I</text><text class="cls-13" transform="translate(557.29 532.58) rotate(-48.54)">O</text><text class="cls-13" transform="translate(309.48 100.27) rotate(-9.61)">2</text><text class="cls-13" transform="translate(330.46 97.05) rotate(-3.13)">0</text><text class="cls-13" transform="translate(352.99 96.19) rotate(3.27)">2</text><text class="cls-13" transform="translate(374.18 97.75) rotate(9.62)">2</text></svg>