<svg xmlns="http://www.w3.org/2000/svg" viewBox="0 0 803.69 286.37"><defs><style>.cls-1{isolation:isolate;}</style></defs><g id="圖層_2" data-name="圖層 2"><g id="圖層_1-2" data-name="圖層 1"><path d="M773.21,218.58c-1.23,0-2.44-.05-3.47-.09h0a1.35,1.35,0,0,1,0-2.69c1,0,2,0,2.93,0a22.19,22.19,0,0,0,9.76-1.76,43.22,43.22,0,0,0,10.76-7.28,19.86,19.86,0,0,0,6.14-10.76c.61-2.54.54-6.14.47-9.32,0-1.38-.05-2.68,0-3.83-.12-20.34-.92-161.33-.92-161.33a2.33,2.33,0,0,1,.55-1.67,2.37,2.37,0,0,1,1.63-.84h.2a2.4,2.4,0,0,1,2.38,2.19s0,0,0,.06a1.27,1.27,0,0,1,0,.26L803.45,81c-.16,39.62-.33,84.24-.43,108.64A24.23,24.23,0,0,1,795.21,209a45.77,45.77,0,0,1-11.59,7.64A23.89,23.89,0,0,1,773.21,218.58Z"/><path d="M802.69,21.56c-.16,39.77-.51,129.38-.67,168.09.32,6.84-2.17,14-7.46,18.61a45.39,45.39,0,0,1-11.35,7.48c-4.16,2-9,1.94-13.42,1.75a.34.34,0,0,1-.34-.34h0a.35.35,0,0,1,.34-.35c4.46.14,9,.16,13.1-1.81a44.78,44.78,0,0,0,11-7.44,21.08,21.08,0,0,0,6.44-11.3c.9-3.72.38-9.46.47-13.33-.19-34.26-.72-126-.92-161.36a1.39,1.39,0,0,1,2.77-.24v.24Z"/><path d="M634.76,86.09a1,1,0,0,1-1-1v-1a1,1,0,0,1,1-1h61.49a1.5,1.5,0,0,0,1.5-1.5l.44-50.94a1.5,1.5,0,0,0-1.5-1.49h-63a1,1,0,0,1-1-1v-1a1,1,0,0,1,1-1h63a4.51,4.51,0,0,1,4.5,4.5l-.44,50.94a4.5,4.5,0,0,1-4.5,4.49Z"/><path d="M696.25,85.09H634.76v-1h61.49a2.51,2.51,0,0,0,2.5-2.5l.44-50.93a2.51,2.51,0,0,0-2.5-2.5h-63v-1h63a3.5,3.5,0,0,1,3.5,3.5l-.44,50.93A3.5,3.5,0,0,1,696.25,85.09Z"/><path d="M739.49,84.56a4.5,4.5,0,0,1-4.5-4.5l-.44-50.92a4.5,4.5,0,0,1,4.5-4.51h63a1,1,0,0,1,1,1v1a1,1,0,0,1-1,1h-63a1.5,1.5,0,0,0-1.5,1.5L738,80.05a1.5,1.5,0,0,0,1.5,1.51h61.44a1,1,0,0,1,1,1v1a1,1,0,0,1-1,1Z"/><path d="M800.93,83.56H739.49a3.5,3.5,0,0,1-3.5-3.5l-.44-50.93a3.5,3.5,0,0,1,3.5-3.5h63v1h-63a2.5,2.5,0,0,0-2.5,2.5L737,80.06a2.5,2.5,0,0,0,2.5,2.5h61.44Z"/><path d="M636.16,57.63a1.5,1.5,0,0,1,0-3h63a1.5,1.5,0,0,1,0,3Z"/><path d="M699.19,56.63h-63a.5.5,0,0,1,0-1h63a.5.5,0,0,1,0,1Z"/><path d="M737,56.26a1.5,1.5,0,0,1,0-3h63a1.5,1.5,0,0,1,0,3Z"/><path d="M800,55.26H737a.5.5,0,0,1,0-1h63a.5.5,0,0,1,0,1Z"/><path d="M759.39,184.6a1.5,1.5,0,0,1-1.5-1.5v-78a1.5,1.5,0,1,1,3,0v78A1.5,1.5,0,0,1,759.39,184.6Z"/><path d="M759.39,183.6a.5.5,0,0,1-.5-.5v-78a.5.5,0,0,1,.5-.5.5.5,0,0,1,.5.5v78A.5.5,0,0,1,759.39,183.6Z"/><path d="M672.73,188.88a1.5,1.5,0,0,1-1.5-1.5v-78a1.5,1.5,0,1,1,3,0v78A1.5,1.5,0,0,1,672.73,188.88Z"/><path d="M672.73,187.88a.5.5,0,0,1-.5-.5v-78a.5.5,0,0,1,.5-.5.5.5,0,0,1,.5.5v78A.5.5,0,0,1,672.73,187.88Z"/><path d="M681.58,112.61h-.1a1.32,1.32,0,0,1-.23-2.63.86.86,0,0,1,.23,0h.11l78.1-.43a1.75,1.75,0,1,1,0,3.5Z"/><path d="M681.55,111l78.15-.43a.75.75,0,0,1,0,1.5l-78.16-.42a.34.34,0,0,1-.39-.27.33.33,0,0,1,.27-.38h.13Z"/><path d="M673.11,180.23a1.75,1.75,0,0,1,0-3.5l78,.43a1.33,1.33,0,0,1,1.33,1.28,1.34,1.34,0,0,1-1.33,1.37Z"/><path d="M673.11,177.73l78,.43a.32.32,0,0,1,.33.31h0a.33.33,0,0,1-.33.33h0l-78,.42a.75.75,0,0,1,0-1.5Z"/><path d="M627.79,212a2.13,2.13,0,0,1-1.48-3.67c5.36-4.59,7.5-10.81,7-20.22l-.13-23.64-.26-49.09c-.18-33.82-.39-73-.49-92.5a2.5,2.5,0,0,1,5,0l.23,169.63a24.78,24.78,0,0,1-8.51,19A2.11,2.11,0,0,1,627.79,212Z"/><path d="M636.4,22.82c.06,45.85.17,124.52.23,169.61a23.9,23.9,0,0,1-8.16,18.3A1.13,1.13,0,0,1,627,209c6.42-5.49,7.72-13,7.27-21l-.13-23.59c-.16-30-.58-110.56-.75-141.59a1.5,1.5,0,0,1,3,0Z"/><path d="M53.76,56.34a3,3,0,0,1-2.9-2.27,1.89,1.89,0,0,1,0-.23c-3.87-21-21.45-38.09-42.75-41.46a1.51,1.51,0,0,1,.23-3l.22,0,.11,0c23.06,2.66,42.82,20.41,48.06,43.21a3,3,0,0,1-2.18,3.62A3.06,3.06,0,0,1,53.76,56.34Z"/><path d="M8.37,10.4C31,13,50.58,30.55,55.71,52.85a2,2,0,1,1-3.88,1,.4.4,0,0,1,0-.15c-3.94-21.43-22-38.87-43.58-42.29a.51.51,0,1,1,.15-1h0Z"/><path d="M3.5,213.55a3.51,3.51,0,0,1-3.47-4,3.49,3.49,0,0,1,1.36-2.31l.24-.16c24.25-16,48.7-45.38,44.54-80A62,62,0,0,0,37.54,102c-.71-1.21-2.15-3.53-2.87-4.6-7-10.52-14.18-18.19-22.08-23.47A29.76,29.76,0,0,0,3,69.61a1.66,1.66,0,0,1-1-.81,1.63,1.63,0,0,1,1.44-2.39h.14l.16,0c11.47,2.69,22.73,12,34.41,28.58.83,1.2,2.37,3.53,3.06,4.75A66.67,66.67,0,0,1,51,126.43c5.33,37-20,68.91-45.43,86.44A3.38,3.38,0,0,1,3.5,213.55Z"/><path d="M3.52,67.41C17.6,70.72,29.3,84.22,37.34,95.6c.79,1.15,2.33,3.47,3,4.66A66.29,66.29,0,0,1,50,126.57c5,34.68-17.63,66.63-45,85.48a2.5,2.5,0,1,1-3-4l.17-.12c26.72-17.59,49-47.62,45-81a63.61,63.61,0,0,0-8.77-25.48c-.69-1.17-2.14-3.51-2.9-4.64-6-9.07-13.23-17.65-22.35-23.74a30.84,30.84,0,0,0-9.89-4.44.63.63,0,0,1,.24-1.23Z"/><path d="M64,99.69a1.56,1.56,0,0,1-1-.33l-.1-.08a1.58,1.58,0,0,1-.19-2.16c10.1-12.71,20.59-26.41,28.14-41.75C97.31,41.82,101.36,26,103.29,7.15a2.5,2.5,0,0,1,2.49-2.24h.28a2.45,2.45,0,0,1,1.68.93,2.49,2.49,0,0,1,.54,1.84,1.18,1.18,0,0,1,0,.2c-2.3,19.24-6.77,35.37-13.68,49.3-8,15.57-18.88,29.24-29.33,41.92A1.54,1.54,0,0,1,64,99.69Z"/><path d="M107.27,7.58c-2,16.91-6,33.84-13.6,49.17C85.85,71.93,75.25,85.38,64.46,98.47a.57.57,0,0,1-.79.1l0,0a.57.57,0,0,1-.09-.81C74,84.55,84.36,71,91.81,55.81,99,40.63,102.59,23.88,104.29,7.25a1.51,1.51,0,0,1,3,.33Z"/><path d="M119.31,39.45a1.5,1.5,0,0,1-1.5-1.48,1.49,1.49,0,0,1,1.48-1.52l50.42-.5a1.5,1.5,0,0,1,1.09,2.55,1.47,1.47,0,0,1-1.06.45Z"/><path d="M119.31,38.45a.5.5,0,0,1,0-1l50.42-.5h0a.51.51,0,0,1,.5.5.5.5,0,0,1-.5.5l-50.42.5Z"/><path d="M141.41,100.18a47.88,47.88,0,0,1-8-.66,1.5,1.5,0,0,1-1.24-1.69,1.51,1.51,0,0,1,1.49-1.29l.23,0a42.73,42.73,0,0,0,6.42.46c11,0,23.93-3.74,27.48-14.24a1,1,0,0,1,.19-.34C168.88,80,169,56,169.07,43c0-7.87.07-12,.17-12.91a2.47,2.47,0,0,1,2.49-2.34,2.56,2.56,0,0,1,1.83.79,2.52,2.52,0,0,1,.68,1.79l-1.62,47.26a20.66,20.66,0,0,1-1.23,6.46C167.07,96,153.07,100.18,141.41,100.18Z"/><path d="M173.24,30.34,171.62,77.6a19.55,19.55,0,0,1-1.17,6.15c-5.06,13.9-24,17-36.92,14.78a.5.5,0,0,1-.42-.56h0a.5.5,0,0,1,.57-.41c12.12,1.82,30.57-1.34,35-14.45,1.7-1,1.21-50,1.55-52.85a1.5,1.5,0,0,1,1.54-1.46,1.51,1.51,0,0,1,1.46,1.55Z"/><path d="M119.83,116.73a1.5,1.5,0,0,1,0-3h50.28a1.5,1.5,0,0,1,0,3Z"/><path d="M170.11,115.73H119.83a.5.5,0,0,1,0-1h50.28a.5.5,0,0,1,0,1Z"/><path d="M47.63,215.78a1.86,1.86,0,0,1-.37-3.68l1.84-.38c6.47-1.32,13.16-2.69,19.61-4.47,36.54-9.6,64.36-30.46,85.05-63.78a161.33,161.33,0,0,0,17.64-39.59,2.77,2.77,0,0,1,2.64-2,3,3,0,0,1,.78.11,2.75,2.75,0,0,1,1.85,3.43,1.22,1.22,0,0,1-.1.24c-11.49,37.17-35.36,69.28-65.51,88.12A150.55,150.55,0,0,1,69.7,211.06c-6.71,1.78-13.6,3.12-20.26,4.41l-1.47.28Z"/><path d="M175.69,105.15c-10.88,35.39-33.53,68-65.16,87.81-12.66,7.88-26.7,13.36-41.08,17.13-7.17,1.91-14.5,3.29-21.67,4.68a.87.87,0,0,1-1-.69.85.85,0,0,1,.68-1c7.21-1.48,14.43-2.91,21.52-4.87,37.4-9.82,65.32-31.5,85.63-64.21a162.44,162.44,0,0,0,17.75-39.84,1.74,1.74,0,0,1,2.18-1.18,1.76,1.76,0,0,1,1.18,2.18Z"/><path d="M200.11,218.48l-.32,0a2.66,2.66,0,0,1-.39-.07A159.28,159.28,0,0,1,87,133.51a1.62,1.62,0,0,1-.09-1.26,1.59,1.59,0,0,1,.82-1,1.76,1.76,0,0,1,.75-.18,1.65,1.65,0,0,1,1.47.91l0,.12c21.55,42.05,63.87,73,110.48,80.84a2.73,2.73,0,0,1,1.8,1,2.76,2.76,0,0,1-2.16,4.48Z"/><path d="M89.05,132.49c21.77,42.57,64.12,73.57,111.26,81.48a1.76,1.76,0,0,1-.4,3.5l-.25-.05A157.39,157.39,0,0,1,87.89,133.06a.64.64,0,0,1,.28-.87.65.65,0,0,1,.88.28Z"/><path d="M743.31,154.69l-.26,0h0a1,1,0,0,1-.51-.14,77.77,77.77,0,0,0-41.41-11.92,79,79,0,0,0-10.42.7,2.31,2.31,0,0,1-.37,0,2.71,2.71,0,0,1-2.16-4.35,2.69,2.69,0,0,1,1.79-1.05c2.69-.26,5.38-.4,8-.4a82,82,0,0,1,46.32,14.27,1.07,1.07,0,0,1,.16.14,1.59,1.59,0,0,1,.45,1.15,1.64,1.64,0,0,1-.5,1.14A1.61,1.61,0,0,1,743.31,154.69Z"/><path d="M743.07,153.68a78.91,78.91,0,0,0-52.5-11.36,1.71,1.71,0,1,1-.47-3.39,81.32,81.32,0,0,1,53.66,13.71.63.63,0,0,1,0,.88.62.62,0,0,1-.67.12Z"/><path d="M441.19,222.21a28.51,28.51,0,0,1-7.85-1.1,1.52,1.52,0,0,1,.41-3,1.83,1.83,0,0,1,.4.05,25.27,25.27,0,0,0,6.59.87q1,0,2.07-.09a27.34,27.34,0,0,0,15.57-7c9.41-8.14,11.14-22,10.93-32.18,0-3.93-.9-76-1-81.7a2.5,2.5,0,0,1,5-.29.77.77,0,0,1,.06.3c0,6.09-.17,78.65-.17,81.72.07,10.93-2.06,25.84-12.59,34.76A30.7,30.7,0,0,1,443,222.15C442.4,222.19,441.79,222.21,441.19,222.21Z"/><path d="M472.35,98.06c0,6-.16,77.63-.17,81.72.08,12.11-2.52,25.77-12.23,34a29.52,29.52,0,0,1-17,7.37,27.71,27.71,0,0,1-9.33-1,.52.52,0,0,1-.37-.64.53.53,0,0,1,.64-.36,26.75,26.75,0,0,0,9,.81,28.21,28.21,0,0,0,16.17-7.29c9.25-8,11.49-21.24,11.25-32.94,0-3.83-.9-76-1-81.7a1.5,1.5,0,0,1,3,0Z"/><path d="M377.48,82a1.5,1.5,0,0,1,0-3h116.8a1.5,1.5,0,0,1,0,3Z"/><path d="M494.28,81H377.48a.5.5,0,0,1,0-1h116.8a.5.5,0,0,1,0,1Z"/><path d="M377.48,39.2a1.5,1.5,0,0,1,0-3h116.8a1.5,1.5,0,0,1,0,3Z"/><path d="M494.28,38.2H377.48a.5.5,0,0,1,0-1h116.8a.5.5,0,0,1,0,1Z"/><path d="M434,82a1.5,1.5,0,0,1-1.5-1.5V1.5a1.5,1.5,0,0,1,3,0v79A1.5,1.5,0,0,1,434,82Z"/><path d="M434,81a.5.5,0,0,1-.5-.5V1.5A.5.5,0,0,1,434,1a.5.5,0,0,1,.5.5v79A.5.5,0,0,1,434,81Z"/><path d="M377.23,120.14a1.5,1.5,0,0,1,0-3H493.85a1.5,1.5,0,0,1,0,3Z"/><path d="M493.85,119.14H377.23a.5.5,0,0,1,0-1H493.85a.5.5,0,0,1,0,1Z"/><path d="M433.85,182.34a3,3,0,0,1-2.89-2.22,2,2,0,0,1-.07-.35c-3.8-21-21.33-38.13-42.62-41.57a1.49,1.49,0,0,1-1-.61,1.44,1.44,0,0,1-.27-1.12,1.51,1.51,0,0,1,1.49-1.27l.23,0,.1,0c23.07,2.74,42.76,20.55,47.92,43.36a3,3,0,0,1-2.91,3.74Z"/><path d="M388.59,136.22c22.63,2.62,42.15,20.28,47.2,42.6a2,2,0,0,1-3.87,1,1.57,1.57,0,0,1,0-.23C428,158.19,410,140.69,388.43,137.21a.5.5,0,0,1-.42-.58.5.5,0,0,1,.58-.42Z"/><path d="M351.67,104.24a1.38,1.38,0,0,1-1.08-.51,1,1,0,0,1-.16-.25c-5.23-11.46-17-19.15-29.21-19.15-.84,0-1.69,0-2.52.11h-.16a2,2,0,0,1-.15-4c.65,0,1.29-.06,1.93-.06,13.79,0,27.2,9,32.63,22a1.4,1.4,0,0,1-.84,1.82A1.35,1.35,0,0,1,351.67,104.24Z"/><path d="M351.34,103.06c-5.68-12.45-19-20.81-32.72-19.62a1,1,0,1,1-.15-2c14.27-.85,28.08,8.23,33.56,21.3a.38.38,0,0,1-.24.48.37.37,0,0,1-.45-.17Z"/><path d="M311.1,180.32a1.5,1.5,0,0,1-1.5-1.5V22.61a1.5,1.5,0,0,1,3,0V178.82A1.5,1.5,0,0,1,311.1,180.32Z"/><path d="M311.1,179.32a.5.5,0,0,1-.5-.5V22.61a.5.5,0,0,1,.5-.5.5.5,0,0,1,.5.5V178.82A.5.5,0,0,1,311.1,179.32Z"/><path d="M357.59,170.69a1.5,1.5,0,0,1-1.5-1.5V14.05a1.5,1.5,0,0,1,3,0V169.19A1.5,1.5,0,0,1,357.59,170.69Z"/><path d="M357.59,169.69a.5.5,0,0,1-.5-.5V14.05a.5.5,0,0,1,.5-.5.5.5,0,0,1,.5.5V169.19A.5.5,0,0,1,357.59,169.69Z"/><path d="M319.43,25.2h-.16a1.38,1.38,0,0,1-.86-.55,1.36,1.36,0,0,1-.22-1,1.33,1.33,0,0,1,1.08-1.07l.16,0,38.14-.42a1.75,1.75,0,1,1,0,3.5h0Z"/><path d="M319.45,23.55l38.14-.42a.76.76,0,0,1,.76.74h0a.76.76,0,0,1-.75.76l-38.15-.43a.33.33,0,0,1-.27-.38.32.32,0,0,1,.27-.27Z"/><path d="M311.27,169.25a1.75,1.75,0,0,1,0-3.5l39.22.43h.16a1.38,1.38,0,0,1,.86.55,1.36,1.36,0,0,1,.22,1,1.33,1.33,0,0,1-1.08,1.07l-.16,0Z"/><path d="M311.27,166.75l39.21.43a.32.32,0,0,1,.26.38.32.32,0,0,1-.26.27l-39.21.42a.75.75,0,0,1,0-1.5Z"/><g class="cls-1"><g class="cls-1"><path d="M16.39,286a1,1,0,0,1-.84-.44L5.32,270.22V285a1,1,0,0,1-1,1H1.4a1,1,0,0,1-1-1V262a1,1,0,0,1,1-1H4.52a1,1,0,0,1,.83.45l10.24,15.3V262a1,1,0,0,1,1-1h2.92a1,1,0,0,1,1,1v23a1,1,0,0,1-1,1Z"/><path d="M1.4,285V262H4.52l12.07,18V262h2.92v23H16.39L4.32,266.92V285Z"/><path d="M50.73,286.37a12,12,0,0,1-6.32-1.71,11.1,11.1,0,0,1-4.25-4.7,14,14,0,0,1-1.42-6.17c0-4.06,1.13-7.31,3.35-9.65a11.45,11.45,0,0,1,8.65-3.55A12,12,0,0,1,57,262.26a10.87,10.87,0,0,1,4.28,4.65,14.82,14.82,0,0,1,1.45,6.61,14.57,14.57,0,0,1-1.53,6.71,10.64,10.64,0,0,1-4.4,4.6A12.52,12.52,0,0,1,50.73,286.37Zm0-21.16a6.79,6.79,0,0,0-4.87,1.94c-1.34,1.28-2,3.53-2,6.69a8.32,8.32,0,0,0,2,5.86,6.8,6.8,0,0,0,9.79,0,8.88,8.88,0,0,0,1.95-6.17,10.87,10.87,0,0,0-.86-4.49,6.25,6.25,0,0,0-2.4-2.81A6.48,6.48,0,0,0,50.76,265.21Z"/><path d="M39.74,273.79q0-5.71,3.07-9a10.44,10.44,0,0,1,7.93-3.24,11,11,0,0,1,5.74,1.52,10.06,10.06,0,0,1,3.9,4.24,13.84,13.84,0,0,1,1.34,6.17,13.58,13.58,0,0,1-1.42,6.26,9.58,9.58,0,0,1-4,4.17,11.41,11.41,0,0,1-5.58,1.42,10.8,10.8,0,0,1-5.8-1.57,10,10,0,0,1-3.87-4.27A13,13,0,0,1,39.74,273.79Zm3.14,0a9.2,9.2,0,0,0,2.23,6.54,7.79,7.79,0,0,0,11.25,0c1.48-1.61,2.22-3.9,2.22-6.85a11.8,11.8,0,0,0-.95-4.9,7.31,7.31,0,0,0-2.77-3.25,7.61,7.61,0,0,0-4.1-1.15,7.78,7.78,0,0,0-5.56,2.22Q42.88,268.65,42.88,273.84Z"/><path d="M111.92,286a1,1,0,0,1-1-1V265.71h-6.57a1,1,0,0,1-1-1V262a1,1,0,0,1,1-1h18.21a1,1,0,0,1,1,1v2.71a1,1,0,0,1-1,1H116V285a1,1,0,0,1-1,1Z"/><path d="M111.92,285V264.71h-7.57V262h18.21v2.71H115V285Z"/><rect x="141.25" y="261" width="5.04" height="24.98" rx="1"/><path d="M142.25,285V262h3v23Z"/><path d="M185.6,286a1,1,0,0,1-1-1v-13.3l-4.73,13.63a1,1,0,0,1-1,.67h-2.74a1,1,0,0,1-1-.68l-4.69-13.83V285a1,1,0,0,1-1,1H166.6a1,1,0,0,1-1-1V262a1,1,0,0,1,1-1h4.58a1,1,0,0,1,.95.69s5.55,16.59,5.6,16.75c.08-.25,5.77-16.76,5.77-16.76a1,1,0,0,1,.94-.68h4.09a1,1,0,0,1,1,1v23a1,1,0,0,1-1,1Z"/><path d="M166.6,285V262h4.58l5.44,16.27c.5,1.52.87,2.65,1.1,3.4.26-.83.67-2.06,1.22-3.68l5.5-16h4.09v23H185.6V265.75L178.92,285h-2.74l-6.64-19.56V285Z"/><path d="M209.55,286a1,1,0,0,1-1-1V262a1,1,0,0,1,1-1h16.61a1,1,0,0,1,1,1v2.71a1,1,0,0,1-1,1H213.59v5H225.3a1,1,0,0,1,1,1v2.7a1,1,0,0,1-1,1H213.59v5.82H226.7a1,1,0,0,1,1,1V285a1,1,0,0,1-1,1Z"/><path d="M209.55,285V262h16.61v2.71H212.59v7H225.3v2.7H212.59v7.82H226.7V285Z"/></g><g class="cls-1"><path d="M284,286a1,1,0,0,1-1-1V262a1,1,0,0,1,1-1h3a1,1,0,0,1,1,1v19.27h10.32a1,1,0,0,1,1,1V285a1,1,0,0,1-1,1Z"/><path d="M284,285V262h3v20.27h11.32V285Z"/></g><g class="cls-1"><path d="M328.47,286.37a12,12,0,0,1-6.33-1.71,11,11,0,0,1-4.24-4.7,14,14,0,0,1-1.42-6.17c0-4.06,1.12-7.31,3.35-9.65a11.45,11.45,0,0,1,8.65-3.55,12,12,0,0,1,6.25,1.67,11,11,0,0,1,4.28,4.65,14.82,14.82,0,0,1,1.44,6.61,14.57,14.57,0,0,1-1.52,6.71,10.64,10.64,0,0,1-4.4,4.6A12.52,12.52,0,0,1,328.47,286.37Zm0-21.16a6.77,6.77,0,0,0-4.87,1.94c-1.34,1.28-2,3.53-2,6.69a8.27,8.27,0,0,0,2,5.86,6.79,6.79,0,0,0,9.78,0,8.84,8.84,0,0,0,2-6.17,10.87,10.87,0,0,0-.86-4.49,6.25,6.25,0,0,0-2.4-2.81A6.48,6.48,0,0,0,328.5,265.21Z"/><path d="M317.48,273.79q0-5.71,3.07-9a10.44,10.44,0,0,1,7.93-3.24,11.07,11.07,0,0,1,5.74,1.52,10,10,0,0,1,3.89,4.24,13.71,13.71,0,0,1,1.34,6.17,13.57,13.57,0,0,1-1.41,6.26,9.58,9.58,0,0,1-4,4.17,11.41,11.41,0,0,1-5.58,1.42,10.8,10.8,0,0,1-5.8-1.57,10,10,0,0,1-3.87-4.27A13,13,0,0,1,317.48,273.79Zm3.13,0a9.2,9.2,0,0,0,2.24,6.54,7.79,7.79,0,0,0,11.25,0c1.48-1.61,2.22-3.9,2.22-6.85a11.8,11.8,0,0,0-.95-4.9,7.31,7.31,0,0,0-2.77-3.25,7.61,7.61,0,0,0-4.1-1.15,7.76,7.76,0,0,0-5.56,2.22Q320.62,268.65,320.61,273.84Z"/><path d="M374.37,286a1,1,0,0,1-.83-.44l-10.23-15.32V285a1,1,0,0,1-1,1h-2.92a1,1,0,0,1-1-1V262a1,1,0,0,1,1-1h3.12a1,1,0,0,1,.83.45l10.24,15.3V262a1,1,0,0,1,1-1h2.91a1,1,0,0,1,1,1v23a1,1,0,0,1-1,1Z"/><path d="M359.39,285V262h3.12l12.07,18V262h2.91v23h-3.12l-12.06-18.06V285Z"/><path d="M409.63,286.37a14.08,14.08,0,0,1-6.62-1.56,10.64,10.64,0,0,1-4.6-4.62,14.27,14.27,0,0,1-1.52-6.59,15.25,15.25,0,0,1,1.5-6.7,10.32,10.32,0,0,1,4.46-4.76,13.67,13.67,0,0,1,6.54-1.53,13.16,13.16,0,0,1,4.88.88,8.52,8.52,0,0,1,3.57,2.55,11,11,0,0,1,1.92,4.14,1,1,0,0,1-.7,1.21l-2.74.76a1.24,1.24,0,0,1-.27,0,1,1,0,0,1-1-.72A7.56,7.56,0,0,0,414,267a4.21,4.21,0,0,0-1.79-1.29,7,7,0,0,0-2.77-.53,8.33,8.33,0,0,0-3.22.56,5.64,5.64,0,0,0-2.1,1.42,7.1,7.1,0,0,0-1.27,2,11.11,11.11,0,0,0-.8,4.24,10.3,10.3,0,0,0,1,4.69,5.78,5.78,0,0,0,2.63,2.63,8.54,8.54,0,0,0,3.85.9,9.15,9.15,0,0,0,3.48-.69,10.56,10.56,0,0,0,2.23-1.17V277h-5.75a1,1,0,0,1-1-1v-2.7a1,1,0,0,1,1-1h9.74a1,1,0,0,1,.71.29,1,1,0,0,1,.29.71v8.52a1,1,0,0,1-.38.78,18.43,18.43,0,0,1-4.89,2.85A14.77,14.77,0,0,1,409.63,286.37Z"/><path d="M409.41,276v-2.7h9.73v8.52a17.4,17.4,0,0,1-4.62,2.69,13.74,13.74,0,0,1-4.89.9,13,13,0,0,1-6.16-1.45,9.54,9.54,0,0,1-4.17-4.19,13.21,13.21,0,0,1-1.41-6.13,14.14,14.14,0,0,1,1.4-6.26,9.31,9.31,0,0,1,4-4.32,12.68,12.68,0,0,1,6.07-1.41,12,12,0,0,1,4.51.81,7.47,7.47,0,0,1,3.15,2.25,9.72,9.72,0,0,1,1.74,3.76l-2.74.75a8.46,8.46,0,0,0-1.28-2.76,5.31,5.31,0,0,0-2.2-1.6,7.88,7.88,0,0,0-3.16-.61,9.21,9.21,0,0,0-3.61.64,6.69,6.69,0,0,0-2.45,1.67,7.83,7.83,0,0,0-1.45,2.27,11.92,11.92,0,0,0-.88,4.62,11.15,11.15,0,0,0,1.06,5.14,6.76,6.76,0,0,0,3.08,3.08,9.65,9.65,0,0,0,4.29,1,11.23,11.23,0,0,0,6.71-2.38V276Z"/><path d="M473.4,286.37a14.17,14.17,0,0,1-5.62-1,8.35,8.35,0,0,1-3.75-3.1,8.73,8.73,0,0,1-1.42-4.66,1,1,0,0,1,.91-1l2.87-.25h.09a1,1,0,0,1,1,.88,5.39,5.39,0,0,0,.78,2.39,4.32,4.32,0,0,0,1.88,1.43,8,8,0,0,0,3.13.6,7.46,7.46,0,0,0,2.71-.46,3.25,3.25,0,0,0,1.53-1.07,2.24,2.24,0,0,0,.47-1.38,2,2,0,0,0-.42-1.27,3.72,3.72,0,0,0-1.63-1,39.35,39.35,0,0,0-4-1.08,21.34,21.34,0,0,1-4.67-1.52,7.31,7.31,0,0,1-2.83-2.49,6.24,6.24,0,0,1-1-3.4,6.89,6.89,0,0,1,1.15-3.8,7.16,7.16,0,0,1,3.34-2.67,12,12,0,0,1,4.6-.86,12.56,12.56,0,0,1,4.9.9,7.49,7.49,0,0,1,3.44,2.8,7.94,7.94,0,0,1,1.3,4.13,1,1,0,0,1-.93,1l-3,.22a1,1,0,0,1-1-.89,3.71,3.71,0,0,0-1.23-2.62,5.28,5.28,0,0,0-3.37-.89,5.64,5.64,0,0,0-3.4.79,2.06,2.06,0,0,0-.89,1.66A1.62,1.62,0,0,0,469,269c.22.19,1,.7,4.14,1.41a30.91,30.91,0,0,1,5.28,1.53,8,8,0,0,1,3.38,2.69,6.71,6.71,0,0,1,1.13,3.83,7.29,7.29,0,0,1-1.21,4,8,8,0,0,1-3.44,2.89A11.55,11.55,0,0,1,473.4,286.37Z"/><path d="M463.61,277.6l2.86-.25a6.48,6.48,0,0,0,.95,2.83,5.22,5.22,0,0,0,2.31,1.78,8.69,8.69,0,0,0,3.53.69,8.55,8.55,0,0,0,3.07-.52,4.35,4.35,0,0,0,2-1.42,3.32,3.32,0,0,0,.65-2,3,3,0,0,0-.63-1.89,4.6,4.6,0,0,0-2.07-1.35,39,39,0,0,0-4.09-1.12,21.13,21.13,0,0,1-4.44-1.44,6.25,6.25,0,0,1-2.45-2.14,5.21,5.21,0,0,1-.81-2.86,5.83,5.83,0,0,1,1-3.25,6.18,6.18,0,0,1,2.88-2.3,11,11,0,0,1,4.22-.78,11.52,11.52,0,0,1,4.51.82,6.54,6.54,0,0,1,3,2.42,7,7,0,0,1,1.13,3.63l-2.92.21a4.67,4.67,0,0,0-1.59-3.29,6.19,6.19,0,0,0-4-1.11,6.45,6.45,0,0,0-4,1,3.06,3.06,0,0,0-1.27,2.44,2.63,2.63,0,0,0,.9,2q.87.8,4.58,1.63a30.24,30.24,0,0,1,5.09,1.47,7,7,0,0,1,3,2.34,5.71,5.71,0,0,1,1,3.27,6.27,6.27,0,0,1-1,3.46,6.93,6.93,0,0,1-3,2.52,10.53,10.53,0,0,1-4.43.9,13.18,13.18,0,0,1-5.23-.91,7.33,7.33,0,0,1-3.3-2.73A7.76,7.76,0,0,1,463.61,277.6Z"/><path d="M502.16,286a1,1,0,0,1-1-1V262a1,1,0,0,1,1-1h16.62a1,1,0,0,1,1,1v2.71a1,1,0,0,1-1,1H506.2v5h11.72a1,1,0,0,1,1,1v2.7a1,1,0,0,1-1,1H506.2v5.82h13.11a1,1,0,0,1,1,1V285a1,1,0,0,1-1,1Z"/><path d="M502.16,285V262h16.62v2.71H505.2v7h12.72v2.7H505.2v7.82h14.11V285Z"/><path d="M539.62,286a1,1,0,0,1-1-1V262a1,1,0,0,1,1-1h16.62a1,1,0,0,1,1,1v2.71a1,1,0,0,1-1,1H543.66v5h11.72a1,1,0,0,1,1,1v2.7a1,1,0,0,1-1,1H543.66v5.82h13.11a1,1,0,0,1,1,1V285a1,1,0,0,1-1,1Z"/><path d="M539.62,285V262h16.62v2.71H542.66v7h12.72v2.7H542.66v7.82h14.11V285Z"/></g><g class="cls-1"><path d="M615.6,286.37a14.26,14.26,0,0,1-5.63-1,8.35,8.35,0,0,1-3.75-3.1,8.9,8.9,0,0,1-1.42-4.66,1,1,0,0,1,.91-1l2.87-.25h.09a1,1,0,0,1,1,.88,5.39,5.39,0,0,0,.79,2.39,4.21,4.21,0,0,0,1.88,1.43,7.89,7.89,0,0,0,3.12.6,7.43,7.43,0,0,0,2.71-.46,3.28,3.28,0,0,0,1.54-1.07,2.29,2.29,0,0,0,.46-1.38,2,2,0,0,0-.42-1.27,3.72,3.72,0,0,0-1.63-1,38.45,38.45,0,0,0-4-1.08,21.53,21.53,0,0,1-4.67-1.52,7.31,7.31,0,0,1-2.83-2.49,6.24,6.24,0,0,1-1-3.4,6.81,6.81,0,0,1,1.15-3.8,7.11,7.11,0,0,1,3.34-2.67,12,12,0,0,1,4.59-.86,12.56,12.56,0,0,1,4.9.9,7.57,7.57,0,0,1,3.45,2.8,7.93,7.93,0,0,1,1.29,4.13,1,1,0,0,1-.92,1l-3,.22a1,1,0,0,1-1-.89,3.71,3.71,0,0,0-1.23-2.62,5.28,5.28,0,0,0-3.37-.89,5.59,5.59,0,0,0-3.39.79,2,2,0,0,0-.89,1.66,1.62,1.62,0,0,0,.56,1.29c.21.19,1,.7,4.14,1.41a31.5,31.5,0,0,1,5.28,1.53,8,8,0,0,1,3.37,2.69,6.71,6.71,0,0,1,1.13,3.83,7.29,7.29,0,0,1-1.21,4,7.93,7.93,0,0,1-3.44,2.89A11.54,11.54,0,0,1,615.6,286.37Z"/><path d="M605.8,277.6l2.87-.25a6.23,6.23,0,0,0,1,2.83,5.11,5.11,0,0,0,2.31,1.78,9.35,9.35,0,0,0,6.6.17,4.32,4.32,0,0,0,2-1.42,3.32,3.32,0,0,0,.65-2,3,3,0,0,0-.63-1.89,4.54,4.54,0,0,0-2.07-1.35,38.29,38.29,0,0,0-4.09-1.12,20.78,20.78,0,0,1-4.43-1.44,6.21,6.21,0,0,1-2.46-2.14,5.29,5.29,0,0,1-.8-2.86,5.89,5.89,0,0,1,1-3.25,6.15,6.15,0,0,1,2.89-2.3,11,11,0,0,1,4.21-.78,11.49,11.49,0,0,1,4.51.82,6.54,6.54,0,0,1,3,2.42,7,7,0,0,1,1.13,3.63l-2.91.21a4.72,4.72,0,0,0-1.6-3.29,6.17,6.17,0,0,0-4-1.11,6.45,6.45,0,0,0-4,1,3,3,0,0,0-1.26,2.44,2.65,2.65,0,0,0,.89,2c.59.53,2.11,1.07,4.59,1.63a30,30,0,0,1,5.08,1.47,7,7,0,0,1,3,2.34,5.71,5.71,0,0,1,1,3.27A6.27,6.27,0,0,1,623,282a6.93,6.93,0,0,1-3,2.52,10.48,10.48,0,0,1-4.42.9,13.14,13.14,0,0,1-5.23-.91,7.31,7.31,0,0,1-3.31-2.73A7.76,7.76,0,0,1,605.8,277.6Z"/></g><g class="cls-1"><path d="M648,286a1,1,0,0,1-1-1V265.71h-6.57a1,1,0,0,1-1-1V262a1,1,0,0,1,1-1h18.21a1,1,0,0,1,1,1v2.71a1,1,0,0,1-1,1H652V285a1,1,0,0,1-1,1Z"/><path d="M648,285V264.71h-7.57V262h18.21v2.71H651V285Z"/><path d="M686.94,286.37a12,12,0,0,1-5.76-1.23,7.33,7.33,0,0,1-3.38-3.72,16.17,16.17,0,0,1-.95-6.14V262a1,1,0,0,1,1-1h3a1,1,0,0,1,1,1v13.26a12,12,0,0,0,.49,4.05,3.21,3.21,0,0,0,1.47,1.68,5.74,5.74,0,0,0,2.82.64c1.94,0,3.3-.41,4.05-1.21.53-.56,1.16-1.91,1.16-5.16V262a1,1,0,0,1,1-1h3a1,1,0,0,1,1,1v13.28a16.58,16.58,0,0,1-.85,5.86,7.71,7.71,0,0,1-3.23,3.8A11,11,0,0,1,686.94,286.37Z"/><path d="M692.88,262h3v13.28a15.77,15.77,0,0,1-.78,5.5,6.75,6.75,0,0,1-2.83,3.31,10,10,0,0,1-5.37,1.28,11.06,11.06,0,0,1-5.28-1.11,6.34,6.34,0,0,1-2.93-3.22,15.28,15.28,0,0,1-.88-5.76V262h3v13.26a12.63,12.63,0,0,0,.56,4.41,4.17,4.17,0,0,0,1.91,2.19,6.64,6.64,0,0,0,3.31.77q3.36,0,4.78-1.52t1.43-5.85Z"/><path d="M717,286a1,1,0,0,1-1-1V262a1,1,0,0,1,1-1H725a19.87,19.87,0,0,1,4.32.36,8.71,8.71,0,0,1,3.79,1.86,10.25,10.25,0,0,1,3,4.33,16.29,16.29,0,0,1,1,5.82,17.2,17.2,0,0,1-.65,4.92,12.38,12.38,0,0,1-1.72,3.65,9.57,9.57,0,0,1-2.34,2.33,9.73,9.73,0,0,1-3.07,1.29,16.62,16.62,0,0,1-3.93.42Zm8-4.71a11.26,11.26,0,0,0,3.25-.37,4.37,4.37,0,0,0,1.67-.95,6.31,6.31,0,0,0,1.44-2.52,13.16,13.16,0,0,0,.56-4.11,9.79,9.79,0,0,0-1-5,5,5,0,0,0-2.39-2.18,10.34,10.34,0,0,0-3.57-.41h-3.83v15.56Z"/><path d="M717,285V262H725a19.12,19.12,0,0,1,4.09.33,7.67,7.67,0,0,1,3.37,1.65,9.34,9.34,0,0,1,2.72,3.92,15.49,15.49,0,0,1,.9,5.47,16,16,0,0,1-.61,4.64,11.27,11.27,0,0,1-1.57,3.34,8.45,8.45,0,0,1-2.09,2.09,8.67,8.67,0,0,1-2.74,1.15,15.86,15.86,0,0,1-3.7.39Zm3-2.71H725a12.08,12.08,0,0,0,3.57-.42,5.18,5.18,0,0,0,2.06-1.2,7.24,7.24,0,0,0,1.68-2.9,14.32,14.32,0,0,0,.61-4.43,10.68,10.68,0,0,0-1.19-5.54,6,6,0,0,0-2.87-2.6,12,12,0,0,0-3.94-.47h-4.83Z"/><rect x="755.78" y="261" width="5.04" height="24.98" rx="1"/><path d="M756.78,285V262h3v23Z"/><path d="M791.3,286.37a12,12,0,0,1-6.33-1.71,11,11,0,0,1-4.24-4.7,13.85,13.85,0,0,1-1.42-6.17c0-4.06,1.12-7.31,3.35-9.65a11.45,11.45,0,0,1,8.65-3.55,12,12,0,0,1,6.25,1.67,11,11,0,0,1,4.28,4.65,14.82,14.82,0,0,1,1.44,6.61,14.57,14.57,0,0,1-1.52,6.71,10.7,10.7,0,0,1-4.4,4.6A12.52,12.52,0,0,1,791.3,286.37Zm0-21.16a6.77,6.77,0,0,0-4.87,1.94c-1.34,1.28-2,3.53-2,6.69a8.27,8.27,0,0,0,2,5.86,6.79,6.79,0,0,0,9.78,0,8.84,8.84,0,0,0,2-6.17,10.87,10.87,0,0,0-.86-4.49,6.31,6.31,0,0,0-2.4-2.81A6.48,6.48,0,0,0,791.33,265.21Z"/><path d="M780.31,273.79q0-5.71,3.07-9a10.44,10.44,0,0,1,7.93-3.24,11.07,11.07,0,0,1,5.74,1.52,10,10,0,0,1,3.89,4.24,13.71,13.71,0,0,1,1.34,6.17,13.57,13.57,0,0,1-1.41,6.26,9.58,9.58,0,0,1-4,4.17,11.41,11.41,0,0,1-5.58,1.42,10.8,10.8,0,0,1-5.8-1.57,10.07,10.07,0,0,1-3.88-4.27A13.08,13.08,0,0,1,780.31,273.79Zm3.13,0a9.2,9.2,0,0,0,2.24,6.54,7.79,7.79,0,0,0,11.25,0c1.48-1.61,2.22-3.9,2.22-6.85a11.8,11.8,0,0,0-.95-4.9,7.31,7.31,0,0,0-2.77-3.25,7.61,7.61,0,0,0-4.1-1.15,7.76,7.76,0,0,0-5.56,2.22Q783.45,268.65,783.44,273.84Z"/></g></g></g></g></svg>