<svg xmlns="http://www.w3.org/2000/svg" viewBox="0 0 1080 500"><defs><style>.cls-1{fill:#fff;}</style></defs><g id="圖層_2" data-name="圖層 2"><rect class="cls-1" x="539.04" y="154.37" width="123.32" height="8.44"/><rect class="cls-1" x="597.05" y="86.5" width="8.44" height="111.08"/><rect class="cls-1" x="529.78" y="193.46" width="148.64" height="8.44"/><rect class="cls-1" x="531.06" y="237.79" width="148.64" height="8.44"/><rect class="cls-1" x="704.54" y="171.35" width="57.65" height="5.62"/><rect class="cls-1" x="834.86" y="171.65" width="44.29" height="5.62"/><path class="cls-1" d="M707.24,214.45l54.94-.08L758,218.59v-89.2l4.22,4.21H707.25l4.22-4.21V453.07H703V129.39a4.22,4.22,0,0,1,4.22-4.22h54.94a4.22,4.22,0,0,1,4.22,4.22v89.2a4.21,4.21,0,0,1-4.21,4.22l-55,.08v-8.44Z"/><rect class="cls-1" x="240.92" y="106.97" width="229.88" height="5.63" transform="translate(42.78 311.44) rotate(-49.93)"/><path class="cls-1" d="M375.86,213.35l-6-6,36.78-36.79H308.25v-8.43H416.86a4.22,4.22,0,0,1,3,7.2Z"/><rect class="cls-1" x="575.82" y="286.45" width="8.44" height="35.3" transform="translate(-62.07 433) rotate(-39.02)"/><rect class="cls-1" x="586.57" y="280.33" width="2.81" height="35.85" transform="translate(-56.62 436.71) rotate(-39.02)"/><polygon class="cls-1" points="894.59 218.67 884.04 218.67 884.04 122.79 840.44 122.79 840.44 112.25 894.59 112.25 894.59 218.67"/><polygon class="cls-1" points="229.86 217.97 219.31 217.97 219.31 112.25 273.46 112.25 273.46 122.79 229.86 122.79 229.86 217.97"/><polygon class="cls-1" points="273.46 373.69 219.31 373.69 219.31 267.97 229.86 267.97 229.86 363.14 273.46 363.14 273.46 373.69"/><polygon class="cls-1" points="894.59 373.69 840.44 373.69 840.44 363.14 884.04 363.14 884.04 267.97 894.59 267.97 894.59 373.69"/><rect class="cls-1" x="218.51" y="239.85" width="37.57" height="5.62"/><polygon class="cls-1" points="379.98 305.4 419.96 345.38 414 351.35 374.02 311.37 379.98 305.4 379.98 305.4"/><path class="cls-1" d="M185.41,474c30.33-30.37,78.7-78.66,108.53-108.53L301,358.1,414.06,239.66l3.05,7.13H313.27l3.05-7.13L358,283.23l-6.09,5.83-41.7-43.57a4.24,4.24,0,0,1,3-7.13H417.11a4.22,4.22,0,0,1,3.05,7.13L307.06,364,300,371.39c-13.14,13.2-37.34,37.28-50.68,50.68L191.38,480l-6-6Z"/><rect class="cls-1" x="648.8" y="199.69" width="2.81" height="236.22"/><rect class="cls-1" x="286.28" y="182.56" width="40.51" height="2.81" transform="translate(-31.2 301.2) rotate(-50.11)"/><path class="cls-1" d="M504.16,304.49H455.31a4.21,4.21,0,0,1-4.21-4.22V183.14a4.21,4.21,0,0,1,4.21-4.22h48.85a4.22,4.22,0,0,1,4.22,4.22V300.27A4.22,4.22,0,0,1,504.16,304.49Zm-44.63-8.44H500V187.35H459.53Z"/><rect class="cls-1" x="455.31" y="239.06" width="48.85" height="5.62"/><path class="cls-1" d="M879.36,222.89H834.88a4.22,4.22,0,0,1-4.22-4.22V129.39h8.44v85.06h40.26Z"/><path class="cls-1" d="M825.72,344.51H770.89a4.21,4.21,0,0,1-4.22-4.21V251a4.22,4.22,0,0,1,4.22-4.22h54.83a4.22,4.22,0,0,1,4.22,4.22V340.3A4.21,4.21,0,0,1,825.72,344.51Zm-50.62-8.43h46.4V255.23H775.1Z"/><rect class="cls-1" x="770.89" y="292.49" width="54.84" height="5.62"/><polygon class="cls-1" points="643.86 438.57 625.59 438.57 625.59 432.94 638.24 432.94 638.24 197.68 643.86 197.68 643.86 438.57"/><rect class="cls-1" x="780.73" y="251.01" width="2.81" height="89.29"/><rect class="cls-1" x="769.48" y="327.64" width="56.24" height="2.81"/></g></svg>