<svg xmlns="http://www.w3.org/2000/svg" viewBox="0 0 1080 1080">
  <defs>
    <style>
      .cls-1, .cls-3, .cls-4 {
        fill: none;
      }

      .cls-1, .cls-2, .cls-3, .cls-4 {
        stroke: #000;
      }

      .cls-1, .cls-2, .cls-4 {
        stroke-miterlimit: 10;
      }

      .cls-1, .cls-4 {
        stroke-width: 2px;
      }

      .cls-2, .cls-3, .cls-4 {
        stroke-linecap: round;
      }

      .cls-2 {
        stroke-width: 1.5px;
      }

      .cls-3 {
        stroke-linejoin: round;
        stroke-width: 2.5px;
      }

      .cls-5 {
        font-size: 32.1px;
        font-family: LINESeedTW_TTF-Thin, LINE Seed TW_TTF;
        font-weight: 200;
        letter-spacing: 0.5em;
      }

      .cls-6 {
        letter-spacing: 0.45em;
      }

      .cls-7 {
        letter-spacing: 0.5em;
      }

      .cls-8 {
        letter-spacing: 0.49em;
      }
    </style>
  </defs>
  <g id="圖層_3" data-name="圖層 3">
    <g>
      <path d="M940,407.5c-.16,39.77-.51,129.38-.67,168.09.32,6.84-2.17,14-7.46,18.61a45.12,45.12,0,0,1-11.35,7.48c-4.16,2-9,1.94-13.42,1.75a.34.34,0,0,1-.34-.34.35.35,0,0,1,.34-.35c4.46.14,9,.16,13.1-1.81a44.45,44.45,0,0,0,11-7.44,21,21,0,0,0,6.44-11.3c.9-3.72.38-9.46.47-13.33-.19-34.26-.72-126-.92-161.36a1.39,1.39,0,1,1,2.77,0Z"/>
      <path class="cls-1" d="M771,413.6h63a3,3,0,0,1,3,3l-.44,50.93a3,3,0,0,1-3,3H772.07"/>
      <path class="cls-1" d="M939.36,412.07h-63a3,3,0,0,0-3,3l.44,50.93a3,3,0,0,0,3,3h61.44"/>
      <line class="cls-2" x1="773.47" y1="442.07" x2="836.5" y2="442.07"/>
      <line class="cls-2" x1="874.32" y1="440.7" x2="937.35" y2="440.7"/>
      <line class="cls-3" x1="896.7" y1="491.08" x2="896.7" y2="569.04"/>
      <line class="cls-3" x1="810.04" y1="495.36" x2="810.04" y2="573.32"/>
      <path d="M818.86,496.9l78.15-.43a.75.75,0,0,1,0,1.5l-78.16-.42a.33.33,0,1,1,0-.65Z"/>
      <path d="M810.42,563.67l78,.43a.32.32,0,0,1,.33.32.33.33,0,0,1-.33.33l-78,.42a.75.75,0,0,1,0-1.5Z"/>
      <path d="M773.71,408.76c.06,45.85.17,124.52.23,169.61a23.85,23.85,0,0,1-8.16,18.3,1.13,1.13,0,0,1-1.46-1.72c6.42-5.49,7.72-13,7.27-21l-.13-23.59c-.16-30-.58-110.56-.75-141.59a1.5,1.5,0,1,1,3,0Z"/>
      <path d="M145.68,396.34c22.64,2.55,42.21,20.15,47.34,42.45a2,2,0,1,1-3.91.83c-3.94-21.43-22-38.87-43.58-42.29a.5.5,0,0,1,.15-1Z"/>
      <path d="M140.83,453.35c14.08,3.31,25.78,16.81,33.82,28.19.79,1.15,2.33,3.47,3,4.66a66.09,66.09,0,0,1,9.67,26.31c5,34.68-17.63,66.63-45,85.48a2.5,2.5,0,1,1-2.84-4.11c26.72-17.59,49-47.62,45-81a63.41,63.41,0,0,0-8.77-25.48c-.69-1.17-2.14-3.51-2.9-4.64-6-9.07-13.23-17.65-22.35-23.74a30.7,30.7,0,0,0-9.89-4.44.63.63,0,0,1,.24-1.23Z"/>
      <path d="M244.58,393.52c-2,16.91-6,33.84-13.6,49.17-7.82,15.18-18.42,28.63-29.21,41.72a.56.56,0,0,1-.81.08.58.58,0,0,1-.09-.81c10.48-13.19,20.8-26.78,28.25-41.93,7.17-15.18,10.78-31.93,12.48-48.56a1.5,1.5,0,1,1,3,.33Z"/>
      <line class="cls-4" x1="256.62" y1="423.89" x2="307.04" y2="423.39"/>
      <path d="M310.55,416.28l-1.62,47.26a19.41,19.41,0,0,1-1.17,6.15c-5.06,13.9-24,17-36.92,14.78a.49.49,0,0,1-.41-.57.5.5,0,0,1,.57-.41c12.12,1.82,30.57-1.34,35-14.45,1.7-1,1.21-50,1.55-52.85a1.5,1.5,0,1,1,3,.09Z"/>
      <line class="cls-4" x1="257.14" y1="501.17" x2="307.42" y2="501.17"/>
      <path d="M313,491.09c-10.88,35.39-33.53,68.05-65.16,87.81-12.66,7.88-26.7,13.36-41.08,17.13-7.17,1.91-14.5,3.29-21.67,4.68a.87.87,0,0,1-1-.69.86.86,0,0,1,.68-1c7.21-1.48,14.43-2.91,21.52-4.87,37.4-9.82,65.32-31.5,85.63-64.21a162.15,162.15,0,0,0,17.75-39.84,1.75,1.75,0,0,1,3.36,1Z"/>
      <path d="M226.36,518.43C248.13,561,290.48,592,337.62,599.91a1.76,1.76,0,1,1-.65,3.45A157.42,157.42,0,0,1,225.2,519a.65.65,0,0,1,1.16-.59Z"/>
      <path d="M880.38,539.62a78.92,78.92,0,0,0-52.5-11.36,1.71,1.71,0,0,1-.47-3.39,81.31,81.31,0,0,1,53.66,13.71.62.62,0,0,1-.69,1Z"/>
      <g>
        <path d="M609.66,484c0,6-.16,77.63-.17,81.72.08,12.11-2.52,25.77-12.23,34a29.52,29.52,0,0,1-17,7.37,27.69,27.69,0,0,1-9.33-1,.5.5,0,1,1,.27-1,26.68,26.68,0,0,0,9,.81,28.21,28.21,0,0,0,16.17-7.29c9.25-8,11.49-21.24,11.25-32.94,0-3.83-.9-76-1-81.7a1.5,1.5,0,0,1,3,0Z"/>
        <line class="cls-4" x1="514.79" y1="466.43" x2="631.59" y2="466.43"/>
        <line class="cls-4" x1="514.79" y1="423.64" x2="631.59" y2="423.64"/>
        <line class="cls-4" x1="571.34" y1="387.44" x2="571.34" y2="466.43"/>
        <line class="cls-4" x1="514.54" y1="504.58" x2="631.16" y2="504.58"/>
        <path d="M525.9,522.16c22.63,2.62,42.15,20.28,47.2,42.6a2,2,0,1,1-3.91.81c-3.87-21.44-21.91-38.94-43.45-42.42a.5.5,0,0,1,.16-1Z"/>
        <path d="M488.65,489c-5.68-12.45-19-20.81-32.72-19.62a1,1,0,0,1-.15-2c14.27-.85,28.08,8.23,33.56,21.3a.38.38,0,0,1-.69.31Z"/>
        <line class="cls-3" x1="448.41" y1="408.55" x2="448.41" y2="564.76"/>
        <line class="cls-3" x1="494.9" y1="399.99" x2="494.9" y2="555.13"/>
        <path d="M456.76,409.49l38.14-.42a.75.75,0,0,1,.76.74.76.76,0,0,1-.75.76l-38.15-.43a.33.33,0,0,1,0-.65Z"/>
        <path d="M448.58,552.69l39.21.43a.33.33,0,0,1,0,.65l-39.21.42a.75.75,0,0,1,0-1.5Z"/>
      </g>
    </g>
    <text class="cls-5" transform="translate(126.88 670.92)">NO TIME <tspan class="cls-6" x="282.69" y="0">L</tspan><tspan class="cls-7" x="316.97" y="0">ONG SEE </tspan><tspan class="cls-8" x="605.4" y="0">S</tspan><tspan x="640.71" y="0">TUDIO</tspan></text>
  </g>
</svg>
